<?xml version="1.0" encoding="UTF-8" standalone="no"?>
<svg
   version="1.0"
   width="748px"
   height="377px"
   viewBox="0 0 7480 3770"
   preserveAspectRatio="xMidYMid meet"
   id="svg29"
   sodipodi:docname="Splat-35.svg"
   inkscape:version="1.1 (c68e22c387, 2021-05-23)"
   xmlns:inkscape="http://www.inkscape.org/namespaces/inkscape"
   xmlns:sodipodi="http://sodipodi.sourceforge.net/DTD/sodipodi-0.dtd"
   xmlns="http://www.w3.org/2000/svg"
   xmlns:svg="http://www.w3.org/2000/svg">
  <defs
     id="defs33" />
  <sodipodi:namedview
     id="namedview31"
     pagecolor="#ffffff"
     bordercolor="#666666"
     borderopacity="1.0"
     inkscape:pageshadow="2"
     inkscape:pageopacity="0.0"
     inkscape:pagecheckerboard="0"
     showgrid="false"
     inkscape:zoom="1.4224599"
     inkscape:cx="353.96429"
     inkscape:cy="188.75752"
     inkscape:window-width="1920"
     inkscape:window-height="1017"
     inkscape:window-x="-8"
     inkscape:window-y="-8"
     inkscape:window-maximized="1"
     inkscape:current-layer="svg29" />
  <g
     id="layer1"
     fill="#000000"
     stroke="none"
     style="fill:#b22222;fill-opacity:1">
    <path
       d="M1775 3563 c-31 -8 -45 -23 -71 -78 -13 -27 -40 -70 -60 -95 -34 -41 -36 -47 -30 -95 6 -47 14 -59 56 -86 8 -6 11 -12 5 -15 -5 -3 -41 -21 -80 -42 l-69 -37 -3 -61 c-3 -45 2 -76 17 -113 29 -74 26 -114 -11 -166 -27 -37 -43 -48 -106 -71 -85 -31 -136 -82 -148 -147 -12 -64 -33 -64 -111 -1 -64 53 -169 114 -196 114 -16 0 -68 -50 -68 -66 0 -7 33 -48 73 -91 41 -43 77 -87 81 -97 12 -34 -22 -113 -62 -144 -55 -43 -112 -49 -194 -18 -36 14 -104 30 -151 36 -75 10 -88 10 -111 -5 -30 -20 -32 -34 -10 -77 14 -27 14 -37 4 -69 -19 -57 -6 -66 94 -70 75 -4 88 -7 127 -35 29 -21 62 -34 97 -39 l53 -7 39 -79 c39 -77 40 -81 40 -187 0 -60 -3 -143 -6 -184 -7 -74 -7 -75 -49 -101 -35 -23 -74 -32 -239 -57 -107 -17 -198 -30 -200 -30 -2 0 -16 -19 -32 -41 l-28 -41 23 -19 c28 -23 41 -23 88 -4 76 32 231 63 343 70 71 4 124 12 137 21 21 13 25 10 94 -89 40 -56 89 -126 110 -155 29 -41 39 -66 44 -114 4 -33 16 -75 26 -93 26 -43 26 -70 -1 -139 -15 -40 -20 -69 -16 -95 5 -35 4 -37 -42 -61 -30 -16 -55 -39 -70 -65 -20 -35 -22 -49 -17 -110 7 -88 32 -115 108 -115 l48 0 50 105 c27 57 49 110 49 118 0 8 -10 27 -21 41 -24 31 -27 15 37 222 29 93 38 113 60 123 22 10 25 16 20 39 -13 55 -13 56 34 63 78 12 270 -51 387 -128 l22 -15 -36 -55 -37 -55 29 -51 29 -52 1 -211 c0 -163 3 -215 14 -227 17 -21 27 -15 50 32 16 31 20 70 26 253 l8 217 41 29 c41 29 41 29 100 15 34 -8 74 -26 97 -44 34 -26 42 -43 69 -127 23 -76 37 -105 64 -131 l34 -33 -15 -56 c-12 -46 -13 -73 -5 -137 11 -84 26 -108 79 -121 39 -10 102 24 124 67 16 33 25 39 63 44 26 4 62 20 85 37 38 28 41 33 41 79 0 63 -27 84 -96 76 -46 -5 -46 -5 -63 37 -20 46 -36 62 -66 68 -29 5 -46 46 -39 94 4 27 -1 63 -14 107 -11 36 -17 68 -14 71 3 4 33 6 67 6 72 0 109 22 120 70 12 56 33 60 144 31 99 -25 99 -25 138 -7 50 25 98 35 114 26 10 -7 9 -22 -6 -75 -16 -61 -16 -68 -2 -82 14 -15 21 -15 64 -1 71 23 87 12 118 -83 43 -129 132 -187 212 -138 l36 22 -7 60 c-5 50 -12 67 -47 109 l-42 49 22 72 c12 39 25 74 29 78 17 17 62 -5 88 -42 15 -21 32 -39 39 -39 7 0 34 32 59 70 36 54 52 70 70 70 17 0 37 16 66 50 35 42 47 50 76 50 19 0 49 -7 65 -16 44 -22 86 -10 111 32 11 18 28 36 38 39 41 13 175 32 188 27 12 -4 14 -23 9 -98 -6 -85 -5 -94 13 -104 33 -18 49 -11 70 29 25 50 35 56 69 41 19 -7 36 -28 52 -62 13 -28 38 -61 55 -75 20 -15 34 -36 38 -58 5 -24 17 -40 42 -56 51 -31 63 -14 36 52 -23 55 -30 153 -12 164 6 4 28 4 50 0 35 -6 43 -13 67 -58 44 -82 93 -74 93 15 0 59 11 66 83 49 38 -8 58 -21 82 -49 l33 -37 34 38 c26 28 42 37 66 37 26 0 36 7 52 32 11 18 21 36 23 41 1 4 49 20 107 36 95 25 107 31 128 62 20 28 30 34 60 34 49 0 54 26 12 65 -62 58 -5 74 160 45 47 -8 99 -15 117 -15 49 0 81 -19 88 -51 9 -42 40 -59 107 -59 31 0 69 -5 83 -12 19 -9 28 -9 37 0 20 20 35 14 58 -23 26 -42 43 -44 65 -8 19 32 108 75 145 71 18 -2 25 3 30 21 4 20 17 28 65 41 48 13 65 23 83 51 13 19 35 38 50 42 55 16 176 11 267 -12 l90 -22 18 22 c28 34 20 54 -37 100 -30 24 -56 53 -58 64 -2 11 -20 29 -41 41 l-39 21 64 35 c35 20 82 45 104 56 27 14 44 30 48 47 4 17 22 33 59 51 59 30 70 43 56 61 -17 20 -67 32 -207 48 -89 10 -147 22 -173 35 l-39 21 22 29 c21 29 21 31 5 65 -18 38 -24 40 -59 25 -13 -5 -51 -16 -85 -24 l-61 -14 -30 42 c-16 22 -32 59 -36 81 -10 52 -19 62 -67 70 -26 5 -62 24 -104 58 l-64 51 80 59 c68 51 80 64 75 83 -5 19 -2 23 21 26 42 5 34 19 -27 53 -32 18 -56 39 -58 50 -5 25 -31 55 -48 55 -7 0 -33 9 -58 20 -40 17 -46 23 -46 49 0 25 -12 41 -71 91 -70 61 -125 141 -112 164 4 6 24 34 46 63 41 56 47 97 15 117 -24 14 -88 -17 -88 -43 0 -11 -14 -28 -36 -40 -68 -41 -86 -16 -34 49 33 42 37 62 15 80 -11 9 -24 8 -59 -5 -42 -16 -47 -16 -70 -1 -14 9 -43 16 -65 16 -36 0 -43 -5 -78 -50 -26 -33 -43 -47 -53 -43 -97 40 -162 56 -232 57 -65 1 -80 5 -100 24 -15 13 -43 24 -72 28 -42 6 -50 4 -74 -19 -17 -16 -53 -32 -94 -42 -62 -16 -70 -21 -108 -71 -32 -43 -46 -54 -69 -54 -22 0 -35 -9 -56 -40 -25 -36 -27 -45 -21 -96 8 -66 11 -72 41 -84 20 -8 22 -14 18 -53 -5 -43 -4 -46 26 -61 34 -18 38 -28 17 -45 -8 -7 -33 -43 -56 -81 -48 -80 -135 -160 -174 -160 -22 0 -31 11 -63 77 -21 43 -46 82 -55 88 -28 16 -53 -6 -54 -46 -1 -57 -17 -75 -75 -83 -51 -7 -53 -6 -95 35 -36 35 -44 51 -53 101 -12 71 -7 85 73 193 65 87 79 112 66 120 -5 3 -51 -32 -103 -79 -90 -81 -97 -86 -177 -106 -72 -18 -99 -20 -192 -14 -107 6 -138 16 -98 29 49 15 138 105 179 177 22 40 50 79 61 86 18 11 21 19 15 52 l-6 38 63 36 c93 52 112 82 115 183 2 67 -1 86 -16 104 l-18 23 -102 -58 c-90 -52 -101 -61 -99 -85 2 -27 -14 -61 -62 -137 -17 -28 -31 -67 -35 -99 -7 -51 -12 -58 -84 -127 -76 -74 -128 -105 -155 -95 -8 3 -24 24 -35 45 -16 31 -19 51 -14 91 5 45 3 55 -17 76 -28 29 -50 31 -79 8 -19 -16 -23 -32 -28 -126 -3 -59 -11 -111 -16 -114 -6 -4 -22 9 -36 28 -14 19 -47 55 -74 82 -44 42 -54 47 -93 47 -30 0 -65 -10 -106 -31 l-61 -31 7 -87 6 -86 -75 -38 c-41 -20 -79 -37 -83 -37 -4 0 -5 24 -4 54 6 95 -46 119 -150 71 -85 -40 -112 -42 -177 -10 -36 17 -66 40 -81 63 -14 20 -55 69 -93 108 l-68 72 -92 21 c-50 12 -105 25 -122 29 -27 7 -31 13 -40 62 -6 29 -16 55 -23 58 -19 6 -40 -15 -47 -48 -3 -16 -13 -31 -22 -35 -24 -9 -100 69 -107 110 -5 26 -19 41 -76 79 -39 25 -70 49 -70 51 0 3 14 32 30 65 35 70 36 84 10 128 -20 32 -26 34 -65 25z"
       id="path2"
       style="fill:#b22222;fill-opacity:1" />
    <path
       d="M2021 3332 c-16 -31 -14 -43 16 -74 37 -38 93 -39 122 -2 12 15 21 33 21 40 0 19 -51 43 -104 50 -38 6 -46 3 -55 -14z"
       id="path4"
       style="fill:#b22222;fill-opacity:1" />
    <path
       d="M3533 3240 c-44 -18 -56 -75 -23 -105 20 -18 22 -18 65 3 38 18 45 26 45 50 0 30 -27 62 -51 61 -8 0 -24 -4 -36 -9z"
       id="path6"
       style="fill:#b22222;fill-opacity:1" />
    <path
       d="M3123 3223 c-62 -12 -114 -135 -80 -187 23 -34 81 -42 138 -20 62 24 67 30 75 80 9 61 -1 91 -39 114 -31 19 -49 22 -94 13z"
       id="path8"
       style="fill:#b22222;fill-opacity:1" />
    <path
       d="M4481 3104 c-26 -19 -84 -141 -77 -161 7 -17 28 -7 104 50 59 45 74 78 47 107 -22 24 -43 25 -74 4z"
       id="path10"
       style="fill:#b22222;fill-opacity:1" />
    <path
       d="M787 2837 c-29 -20 -32 -78 -8 -125 12 -23 27 -42 33 -42 6 0 26 11 45 26 40 30 44 69 12 120 -22 36 -52 44 -82 21z"
       id="path12"
       style="fill:#b22222;fill-opacity:1" />
    <path
       d="M6521 2469 c-89 -8 -116 -20 -85 -37 34 -17 198 -43 249 -40 48 3 50 4 50 33 0 53 -38 61 -214 44z"
       id="path14"
       style="fill:#b22222;fill-opacity:1" />
    <path
       d="M6970 2218 c-19 -5 -60 -30 -90 -55 -99 -81 -89 -95 43 -59 129 36 153 57 127 107 -12 21 -27 22 -80 7z"
       id="path16"
       style="fill:#b22222;fill-opacity:1" />
    <path
       d="M356 2064 c-26 -15 -28 -19 -22 -57 9 -55 39 -79 86 -71 78 13 101 57 59 115 -16 23 -28 29 -57 29 -20 -1 -50 -8 -66 -16z"
       id="path18"
       style="fill:#b22222;fill-opacity:1" />
    <path
       d="M6416 1172 c-6 -11 15 -41 93 -135 64 -77 88 -90 111 -62 30 36 -37 133 -121 176 -62 31 -75 34 -83 21z"
       id="path20"
       style="fill:#b22222;fill-opacity:1" />
    <path
       d="M5253 1020 c-17 -7 -23 -18 -23 -41 0 -48 35 -95 96 -130 47 -26 59 -30 80 -21 57 26 35 107 -45 168 -45 35 -68 40 -108 24z"
       id="path22"
       style="fill:#b22222;fill-opacity:1" />
    <path
       d="M4252 907 c-5 -6 -33 -81 -62 -165 -46 -132 -52 -158 -44 -189 12 -46 34 -61 69 -45 44 20 57 70 63 243 5 152 -1 187 -26 156z"
       id="path24"
       style="fill:#b22222;fill-opacity:1" />
    <path
       d="M4757 683 c-33 -33 52 -219 123 -268 26 -18 45 -42 56 -71 22 -59 88 -112 148 -120 42 -6 46 -5 57 19 11 23 9 31 -16 67 -16 23 -50 52 -78 68 -49 26 -52 30 -73 99 -15 51 -34 88 -65 124 -51 61 -131 104 -152 82z"
       id="path26"
       style="fill:#b22222;fill-opacity:1" />
  </g>
</svg>
