<?xml version="1.0" encoding="UTF-8" standalone="no"?>
<!-- Created with Inkscape (http://www.inkscape.org/) -->

<svg
   width="220.4536"
   height="144.76114"
   id="svg77625"
   version="1.1"
   inkscape:version="1.1 (c68e22c387, 2021-05-23)"
   sodipodi:docname="splat3.svg"
   xmlns:inkscape="http://www.inkscape.org/namespaces/inkscape"
   xmlns:sodipodi="http://sodipodi.sourceforge.net/DTD/sodipodi-0.dtd"
   xmlns="http://www.w3.org/2000/svg"
   xmlns:svg="http://www.w3.org/2000/svg"
   xmlns:rdf="http://www.w3.org/1999/02/22-rdf-syntax-ns#"
   xmlns:cc="http://creativecommons.org/ns#"
   xmlns:dc="http://purl.org/dc/elements/1.1/">
  <defs
     id="defs77627" />
  <sodipodi:namedview
     id="base"
     pagecolor="#ffffff"
     bordercolor="#666666"
     borderopacity="1.0"
     inkscape:pageopacity="0.0"
     inkscape:pageshadow="2"
     inkscape:zoom="2.8"
     inkscape:cx="106.96429"
     inkscape:cy="33.392857"
     inkscape:document-units="px"
     inkscape:current-layer="layer1"
     showgrid="false"
     fit-margin-top="0"
     fit-margin-left="0"
     fit-margin-right="0"
     fit-margin-bottom="0"
     inkscape:window-width="1920"
     inkscape:window-height="1017"
     inkscape:window-x="-8"
     inkscape:window-y="-8"
     inkscape:window-maximized="1"
     inkscape:pagecheckerboard="0" />
  <metadata
     id="metadata77630">
    <rdf:RDF>
      <cc:Work
         rdf:about="">
        <dc:format>image/svg+xml</dc:format>
        <dc:type
           rdf:resource="http://purl.org/dc/dcmitype/StillImage" />
      </cc:Work>
    </rdf:RDF>
  </metadata>
  <g
     inkscape:label="Layer 1"
     inkscape:groupmode="layer"
     id="layer1"
     transform="translate(50.226797,-191.41019)">
    <g
       id="g21034"
       transform="matrix(1.25,0,0,-1.25,839.56125,761.51733)"
       style="fill:#b22222;fill-opacity:1">
      <path
         id="path21036"
         style="fill:#b22222;fill-opacity:1;fill-rule:nonzero;stroke:none"
         d="m -550.15629,340.57294 c 0.127,0.263 0.883,0.306 0.69,-0.095 -0.127,-0.262 -0.882,-0.305 -0.69,0.095 m 0.2226,51.9287 c -0.263,0.818 0.714,0.182 0.729,-0.265 0,-0.006 -0.599,-0.138 -0.729,0.265 m -104.0976,-27.62891 c 0.806,0.455 0.828,-0.331 0.392,-0.462 -0.79,-0.236 -0.437,0.437 -0.392,0.462 m 82.0586,47.58501 c -0.412,0.422 0.088,0.922 0.51,0.51 0.179,-0.176 -0.334,-0.69 -0.51,-0.51 m -96.503,-25.9825 c 0.162,0.335 0.543,0.244 0.787,0.225 -0.102,-0.266 -0.593,-0.956 -0.952,-0.513 0.054,0.106 0.143,0.242 0.165,0.288 m 20.1826,-19.37791 c -0.411,0.422 0.088,0.922 0.511,0.51 0.178,-0.175 -0.335,-0.69 -0.511,-0.51 m -14.7841,74.69921 c 0.515,0.16 0.531,-0.85 -0.045,-0.856 -0.276,-0.003 -0.363,0.729 0.045,0.856 m 103.625,-64.748 c 0.222,0.479 0.856,-0.007 0.966,-0.357 -0.369,-0.067 -1.171,-0.088 -0.966,0.357 m -82.4903,16.79099 c 0.393,0.071 0.583,-0.564 0.393,-0.747 -0.259,-0.251 -0.93,-0.141 -0.638,0.415 0.036,0.068 0.155,0.315 0.245,0.332 m -42.4785,46.3574 c -0.149,0.289 0.032,0.733 0.442,0.452 0.363,-0.247 0.313,-0.931 0.213,-0.914 -0.424,0.074 -0.554,0.268 -0.655,0.462 m 13.6953,-76.58689 c 0.273,0.193 0.292,-0.752 -0.265,-0.891 -0.272,-0.067 -0.735,0.087 -0.382,0.482 0.163,0.182 0.41,0.24 0.647,0.409 m 40.0283,11.9844 c 0.425,0.291 0.619,-0.157 0.445,-0.429 -0.174,-0.274 -0.397,-0.577 -0.648,-0.696 0.032,0.354 -0.207,0.845 0.203,1.125 m 34.3038,-20.3946 c -0.219,0.433 0.433,0.414 0.479,0.201 0.093,-0.433 0.354,-0.724 0.25,-1.118 -0.429,0.026 -0.543,0.55 -0.729,0.917 m -54.1036,13.1534 c 0.63,0.09 -0.013,-0.669 -0.253,-0.769 -0.353,-0.148 -0.816,0.022 -0.463,0.416 0.163,0.183 0.397,0.308 0.716,0.353 m 14.3243,17.86909 c 0.43,0.765 0.511,-0.27 0.417,-0.48 -0.13,-0.294 -0.395,-0.518 -0.69,-0.457 -0.091,0.345 0.119,0.662 0.273,0.937 m -26.1895,-25.3076 c 0.392,0.368 0.549,-0.089 0.45,-0.396 -0.14,-0.438 -0.669,-0.47 -0.926,-0.65 -0.154,0.437 0.174,0.764 0.476,1.046 m 108.6055,11.60551 c -0.34,0.465 0.113,0.658 0.386,0.483 0.27,-0.174 0.647,-0.358 0.648,-0.764 0,-0.338 -0.785,-0.06 -1.034,0.281 m -80.8662,-18.95811 c 0.078,0.439 0.419,0.628 0.843,0.475 -0.019,-0.524 -0.567,-0.961 -0.991,-1.037 -0.461,-0.082 -0.077,0.489 0.148,0.562 m 53.1318,74.99611 c -0.06,0.058 0,0.695 0,0.861 0.291,0.023 0.648,0.101 0.831,-0.217 0.313,-0.543 -0.5,-0.962 -0.831,-0.644 m -59.1357,-29.1347 c 0.223,0.452 0.718,0.199 1.03,0.229 0.531,-1.007 -0.751,-0.643 -1.187,-0.584 -0.014,0.067 0.088,0.214 0.157,0.355 m 79.5439,15.4834 c 0.418,0.203 0.884,-0.228 0.791,-0.557 -0.132,-0.464 -0.684,-0.21 -1.016,-0.236 -0.02,0.263 -0.105,0.633 0.225,0.793 m -27.8389,28.8037 c 0.383,0.192 0.734,-0.181 0.603,-0.541 -0.156,-0.427 -0.458,-0.628 -0.824,-0.496 0.027,0.327 -0.211,0.819 0.221,1.037 m -27.6904,-0.1348 c 0.101,0.408 0.752,0.372 0.942,-0.02 0.169,-0.345 -0.277,-0.865 -0.701,-0.666 -0.282,0.133 -0.294,0.473 -0.241,0.686 m -19.8408,-60.80371 c 0.27,0.174 0.808,0.149 0.952,0.049 -0.237,-0.462 -0.473,-0.995 -1.037,-1.117 -0.198,-0.044 -0.298,0.822 0.085,1.068 m -17.2598,-27.88179 c 0.365,0.409 0.603,-0.113 0.349,-0.313 -0.331,-0.26 -0.82,-1.137 -1.23,-0.613 -0.334,0.427 0.573,0.582 0.881,0.926 m 83.6162,59.209 c 0.304,0.408 0.885,0.178 1.357,0.203 0.581,-1.266 -1.06,-0.537 -1.481,-0.62 -0.02,0.097 0.019,0.274 0.124,0.417 m -76.8984,-45.0645 c 0.645,0.459 0.671,-0.541 0.448,-0.741 -0.341,-0.306 -0.653,-0.285 -0.924,-0.264 -0.161,0.41 0.172,0.788 0.476,1.005 m 81.7119,32.57229 c 0.07,0.258 -0.03,0.811 0.329,0.724 0.47,-0.115 0.563,-0.646 0.483,-1.026 -0.092,-0.432 -0.646,-0.351 -0.797,-0.158 -0.045,0.057 -0.04,0.367 -0.015,0.46 m 5.459,-21.375 c -0.221,0.338 0.102,0.669 0.448,0.423 0.352,-0.249 1.161,-0.686 0.781,-1.162 -0.47,0.26 -0.981,0.359 -1.229,0.739 m -115.0518,-31.25389 c 0.252,0.204 0.704,0.011 0.405,-0.415 -0.346,-0.494 -0.98,-0.532 -1.409,-1.045 -0.357,0.621 0.576,1.114 1.004,1.46 m 132.9903,57.3496 c -0.442,0.923 0.708,0.466 0.988,0.486 0.478,0.036 0.47,-0.799 0.026,-0.867 -0.36,-0.054 -0.826,-0.01 -1.014,0.381 m -20.7285,-26.27351 c -0.498,0.463 0.142,0.898 0.595,0.617 0.385,-0.239 0.983,-0.679 0.601,-1.042 -0.309,-0.293 -0.788,0.046 -1.196,0.425 m -80.0625,64.1328 c 0.334,0.225 0.987,0.229 1.174,-0.267 0.123,-0.328 -0.132,-0.642 -0.411,-0.742 -0.331,-0.118 -0.855,-0.054 -0.983,0.363 -0.073,0.239 0,0.498 0.22,0.646 m 48.7216,11.76571 c 0.345,0.196 0.996,0.228 1.163,-0.274 0.138,-0.414 -0.391,-1.174 -0.942,-0.859 -0.33,0.188 -0.74,0.838 -0.221,1.133 m 35.1446,-65.5362 c 0.392,0.462 1.25,-0.092 1.48,-0.552 0.138,-0.274 0.173,-1.076 -0.44,-0.657 -0.356,0.243 -0.878,0.411 -1.024,0.826 -0.033,0.094 -0.084,0.302 -0.016,0.383 m -51.4737,39.27349 c -0.055,0.02 -0.201,0.09 -0.237,0.133 -0.321,0.381 -0.861,0.688 -0.916,1.301 -0.037,0.416 0.352,0.972 0.797,0.597 0.527,-0.445 0.335,-1.305 0.356,-2.031 m 48.32821,-32.0684 c -0.239,0.538 0.089,0.721 0.342,0.664 0.793,-0.179 1.493,-0.293 2.049,-0.799 -0.468,-0.264 -1.589,-0.339 -2.245,0.036 -0.052,0.03 -0.166,0.143 -0.146,0.099 m -41.36331,-36.94919 c 0.278,0.282 0.788,0.072 0.904,-0.271 0.238,-0.705 -0.477,-1.618 -1.156,-1.572 0,0.361 -0.04,1.278 0,1.576 0.009,0.062 0.201,0.215 0.252,0.267 m -69.458,69.5078 c -0.394,0.384 0.078,0.578 0.344,0.405 0.861,-0.561 0.938,-1.894 0.918,-2.805 -0.795,0.502 -0.587,1.742 -1.262,2.4 m 25.9687,-46.37601 c 0.313,0.128 1.162,0.476 0.93,0.049 -0.506,-0.931 -1.284,-1.414 -2.095,-1.577 -0.218,0.301 -0.125,0.777 0.252,0.953 0.327,0.152 0.575,0.437 0.913,0.575 m 99.9981,11.86141 c 0.427,0.426 1.254,0.139 1.793,-0.182 0.32,-0.189 0.24,-0.557 0.22,-0.809 -0.691,-0.094 -1.465,-0.044 -1.992,0.48 -0.043,0.044 -0.099,0.434 -0.021,0.511 m -163.2403,-15.42 c 0.265,0.044 1.088,0 1.451,0 -0.27,-0.81 -1.305,-1.215 -2.085,-1.161 -0.423,0.029 -0.341,0.604 -0.154,0.776 0.128,0.118 0.62,0.357 0.788,0.385 m 39.2461,-0.0927 c 0.204,0.097 0.986,0.049 0.748,-0.185 -0.773,-0.76 -1.939,-1.367 -3.318,-1.79 0.7,0.933 1.674,1.546 2.57,1.975 m 56.2188,56.581 c 0.417,0.24 1.22,0.254 1.553,-0.318 0.191,-0.331 0.037,-0.796 -0.321,-0.922 -0.535,-0.189 -1.237,0.071 -1.442,0.609 -0.092,0.24 -0.022,0.496 0.21,0.631 m 71.4267,-39.77931 c -0.412,0.403 0.009,0.645 0.398,0.572 0.94,-0.172 2.093,-0.334 2.575,-1.181 -1.245,-0.084 -2.394,0.04 -2.973,0.609 m -27.82319,12.63281 c 0.462,0.201 1.243,0.427 1.484,-0.223 0.202,-0.543 -0.246,-1.02 -0.662,-1.203 -0.325,-0.143 -0.868,-0.084 -0.939,0.353 -0.054,0.334 -0.251,0.913 0.117,1.073 m -69.39841,-17.1113 c 0.909,0.493 0.483,-0.708 0.504,-1.062 0.713,-0.208 0.313,-0.972 -0.161,-0.968 -0.318,0.004 -0.833,-0.599 -0.973,-0.017 -0.075,0.311 -0.04,1.157 0.039,1.403 0.049,0.154 0.45,0.567 0.591,0.644 m -70.1456,-22.08591 c 0.449,0.094 0.89,0.283 1.351,0.274 0.252,-0.676 -0.456,-1.147 -0.965,-1.313 -0.539,-0.177 -1.085,-0.453 -1.642,-0.4 -0.169,0.468 0.138,0.833 0.465,1.068 0.144,0.102 0.622,0.335 0.791,0.371 m 10.9551,28.9384 c 0.361,0.203 0.88,0.167 1.212,0.036 0.494,-0.195 0.476,-0.983 0.089,-1.34 -0.363,-0.333 -1.338,-0.514 -1.461,0.093 -0.085,0.42 -0.27,0.969 0.16,1.211 m 143.1397,-23.747 c -0.682,0.312 0.811,0.119 0.946,0.017 1.085,-0.82 2.374,-1.037 3,-2.144 -1.132,0.326 -2.687,1.552 -3.946,2.127 m -83.1494,7.2158 c 0.375,0.2 0.891,0.021 0.904,-0.444 0.024,-0.747 -1.072,-1.455 -1.769,-1.414 -0.516,0.03 -0.271,0.724 -0.031,1.011 0.261,0.315 0.526,0.649 0.896,0.847 m -8.6817,-18.24609 c 0.648,0.043 1.601,0.777 1.922,-0.043 0.22,-0.56 -0.437,-1.009 -0.984,-1.311 -0.41,-0.225 -0.679,0.823 -1.344,0.527 -0.094,0.322 0.01,0.801 0.406,0.827 m 6.5274,43.0508 c 0.525,0.475 1.185,0.123 1.661,-0.136 0.54,-0.294 0.126,-0.924 -0.215,-1.157 -0.63,-0.432 -1.418,0.129 -1.768,0.64 -0.133,0.194 0.13,0.478 0.322,0.653 m 1.9716,-29.2207 c 0.439,0.249 1.81,0.796 1.353,0.133 -0.66,-0.955 -1.517,-1.553 -2.015,-2.18 -0.36,-0.453 -0.899,0.151 -0.685,0.539 0.358,0.648 0.881,1.243 1.347,1.508 m 88.8038,11.6679 c -0.204,0.475 0.196,0.623 0.566,0.496 1.111,-0.383 1.866,-1.256 2.6,-2.339 -1.161,0.266 -2.714,0.794 -3.166,1.843 m -82.0508,-31.3906 c 0.46,0.177 0.717,-0.607 0.812,-1.06 0.124,-0.597 -0.416,-1.536 -1.136,-1.229 -0.172,0.073 -0.639,0.601 -0.644,0.752 -0.018,0.565 0.233,1.255 0.968,1.537 m 72.8486,-2.58691 c 0.391,0.24 1.063,0.337 1.241,0.037 0.295,-0.495 0.633,-0.918 0.488,-1.212 -0.285,-0.58 -0.768,-1.063 -1.342,-0.765 -0.203,0.105 -0.475,0.338 -0.516,0.563 -0.091,0.489 -0.269,1.133 0.129,1.377 m -44.2021,76.98051 c 0.428,0.054 1.044,-0.219 1.185,-0.599 0.123,-0.334 0.219,-0.779 -0.157,-0.961 -0.547,-0.264 -1.121,-0.757 -1.661,-0.627 -0.447,0.109 -0.265,0.843 -0.172,1.311 0.035,0.177 0.603,0.851 0.805,0.876 m 65.9531,-62.05471 c 0.469,0.468 1.255,-0.234 1.738,-0.562 0.501,-0.337 1.23,-0.768 1.205,-1.545 -1.338,-0.183 -2.539,0.797 -2.942,1.789 -0.005,0.012 -0.081,0.238 -0.001,0.318 m -7.2002,2.83891 c 0.828,0.339 1.464,-0.584 1.959,-1.107 0.318,-0.335 1,-0.669 0.761,-1.236 -0.266,-0.631 -0.977,0.044 -1.342,0.301 -0.548,0.387 -1.171,0.823 -1.378,1.437 -0.045,0.134 0,0.438 0,0.605 m -111.96,2.8086 c -0.035,0.235 0,0.961 0,1.207 0.742,0.31 0.962,-0.617 1.271,-0.979 0.515,-0.607 0.655,-1.707 0.111,-2.041 -0.562,-0.346 -0.889,0.25 -1.012,0.615 -0.081,0.239 -0.333,0.953 -0.37,1.198 m 0.2149,-6.3067 c 0.293,0.094 1.079,0.162 0.661,-0.441 -0.675,-0.974 -1.589,-1.927 -2.994,-2.411 -0.167,-0.057 -0.069,0.612 0.051,0.772 0.602,0.805 1.246,1.752 2.282,2.08 m 93.3515,48.77539 c 0.384,0.329 1.486,0.586 1.826,-0.232 0.158,-0.38 0.291,-1.028 -0.009,-1.206 -0.496,-0.295 -0.911,-0.621 -1.367,-0.434 -0.693,0.282 -1.094,1.321 -0.45,1.872 m -42.1572,24.42291 c 0.564,0.151 1.354,-0.721 1.265,-1.2 -0.164,-0.885 -0.969,-1.435 -1.633,-1.243 -0.433,0.124 -0.778,0.837 -0.593,1.364 0.088,0.248 0.674,1.002 0.961,1.079 m -49.8652,-56.13971 c 0.533,0.242 0.812,-0.274 0.529,-0.675 -0.719,-1.023 -2.013,-1.843 -3.665,-1.971 0.64,1.208 1.843,2.061 3.136,2.646 m 98.7763,3.6426 c -0.102,0.234 0,1.334 0,1.695 0.951,-0.393 2.547,-1.447 2.375,-2.761 -1.008,-0.163 -2.003,0.208 -2.375,1.066 m -121.9209,16.70311 c 0.55,0.104 1.441,-0.138 1.567,-0.856 0.099,-0.562 -0.308,-1.162 -0.799,-1.367 -0.525,-0.219 -1.256,0.035 -1.392,0.6 -0.135,0.563 -0.223,1.462 0.624,1.623 m 34.6856,-41.6572 c 0.204,0.415 0.883,0.241 1.022,0.177 -0.342,-1.418 -1.453,-2.323 -2.402,-3.161 0.253,-0.747 -0.151,-1.316 -0.715,-1.702 -0.748,-0.51 -0.44,0.854 -0.31,1.075 0.734,1.247 1.747,2.273 2.405,3.611 m -14.5235,45.7109 c 0.929,0.258 1.541,-0.562 1.83,-1.278 0.125,-0.31 0.199,-1.06 -0.459,-0.711 -0.285,-0.206 -0.483,-0.608 -0.899,-0.565 -0.868,0.089 -1.541,0.628 -2.021,1.412 -0.23,0.376 0.495,0.943 1.021,0.925 0.141,-0.005 0.427,0.19 0.528,0.217 m 6.3321,-41.1787 c 0.318,0.145 0.904,-0.156 0.653,-0.457 -0.641,-0.772 -0.576,-1.847 -0.861,-2.088 -1.017,-0.858 -1.635,-1.568 -2.579,-1.537 0.372,0.99 1.88,1.105 2.337,2.386 -0.892,-0.566 -2.01,-1.319 -2.348,-0.722 -0.305,0.538 -0.183,1.056 0.242,1.212 0.53,0.194 2.041,0.971 2.556,1.206 m 32.9892,59.9346 c 0.809,0.289 2.29,0.057 2.349,-1.105 0.034,-0.665 -0.064,-1.608 -0.786,-1.829 -0.925,-0.283 -2.091,0.388 -2.233,1.434 -0.084,0.624 0.038,1.274 0.67,1.5 m 55.3975,-23.9072 c 0.206,0.061 0.889,-0.015 0.846,0.006 1.115,-0.517 2.121,-1.769 1.24,-2.855 -0.557,-0.684 -1.779,-0.761 -2.453,-0.115 -0.637,0.611 -0.76,1.774 -0.137,2.472 0.093,0.104 0.382,0.457 0.504,0.492 m -128.3076,-31.0967 c 0.499,0.083 1.124,0.676 1.549,0.158 0.335,-0.407 -0.163,-0.751 -0.546,-1.23 -0.754,-0.947 -2.274,-1.452 -3.894,-1.801 -0.436,-0.095 -1.719,-0.508 -2.336,-0.697 1.551,1.183 2.621,2.727 4.002,3.383 0.456,0.217 1.04,0.156 1.225,0.187 m 150.0205,16.1211 c 0.731,0.234 1.543,-0.462 1.769,-1.342 0.206,-0.799 0.169,-1.677 0.014,-2.407 -0.103,-0.489 -0.641,-0.951 -1.141,-0.652 -0.908,0.543 -1.529,1.447 -1.811,2.483 -0.201,0.742 0.34,1.653 1.169,1.918 m -43.87309,57.456 c 0.236,0.031 0.963,0.006 0.98,-0.002 1.092,-0.461 1.802,-1.867 0.954,-2.859 -0.134,-0.157 -0.575,-0.62 -0.67,-0.647 -0.96,-0.268 -2.142,-0.041 -2.304,0.518 -0.448,1.544 -0.052,2.843 1.04,2.99 m -28.39351,-7.0722 c 1.621,0.194 3.849,-0.659 3.652,-2.53 -0.081,-0.764 0.07,-1.64 -0.616,-2.381 -1.666,0.819 -3.082,2.33 -3.295,4.584 -0.009,0.089 0.197,0.319 0.259,0.327 m 33.9228,3.9199 c 1.008,0.232 2.37,-0.062 2.691,-1.126 0.44,-1.455 -0.447,-2.922 -1.676,-3.08 -0.752,-0.097 -1.754,-0.324 -2.372,0.257 0.193,0.508 -0.049,1.168 -0.644,1.041 -0.509,-0.108 -1.636,-0.488 -1.841,0.534 -0.214,1.067 0.787,1.752 1.536,2.186 0.335,-0.324 1.103,-0.843 1.541,-0.162 0.077,0.12 0.596,0.311 0.765,0.35 m -18.0019,4.3086 c 1.298,0.267 2.12,-0.892 2.633,-1.705 0.388,-0.616 0.453,-1.938 -0.209,-2.813 -0.468,-0.619 -1.172,-0.85 -1.909,-0.914 -1.266,-0.109 -2.229,0.982 -2.476,1.969 -0.419,1.673 0.663,3.197 1.961,3.463 m -35.127,-36.90921 c 1.328,0.078 2.626,-0.088 3.828,0.118 -0.919,-0.733 -1.419,-1.814 -1.968,-2.685 -1.532,-0.679 -2.856,-0.057 -3.895,0.518 -0.933,-0.575 -1.918,-1.463 -3.208,-1.357 -0.86,0.724 -2.181,1.178 -2.587,2.385 1.658,0.852 4.123,0.664 5.434,0.104 0.787,-0.337 1.469,0.862 2.396,0.917 m 0.1368,-36.93849 c 0.498,0.563 0.361,-0.309 0.276,-0.422 -0.765,-1.022 -2.05,-2.248 -2.094,-3.427 1.186,-0.141 2.164,0.095 2.868,0.895 2.127,-1.192 4.436,0.137 5.547,1.652 0.325,-0.247 0.788,-0.153 1.329,-0.145 -0.656,-0.662 -1.665,-1.281 -2.139,-2.171 -0.365,-0.689 0.68,-1.641 0.062,-2.481 -0.383,-0.52 -0.879,-1.04 -1.63,-1.163 -0.588,-0.095 -1.309,0.848 -1.831,1.844 -1.712,-2.245 -4.193,-4.061 -6.21,-6.1 -0.405,1.713 0.827,2.942 2.023,3.347 0.806,1.269 1.995,2.757 3.504,3.185 -0.048,0.397 0.498,1.279 -0.39,1.098 -1.579,-0.323 -2.757,-1.232 -3.23,-1.668 -2.163,-0.925 -3.3,-2.693 -4.262,-3.882 -0.117,0.175 0.245,0.778 -0.277,0.458 -0.929,-0.572 -2.014,-0.709 -3.001,-0.867 0.305,1.729 1.733,2.752 2.692,3.588 0.342,0.298 1.608,-0.043 1.94,0.341 1.655,1.912 3.17,4.049 4.823,5.918 m 23.6298,53.25589 c 0.52,-0.881 1.259,-1.786 1.583,-3.195 -0.436,0.675 -0.872,0.245 -0.809,-0.156 0.075,-0.473 0.526,-0.969 0.849,-0.721 0.644,0.494 1.115,-0.54 1.604,-0.095 0.738,0.671 1.01,1.587 1.002,2.489 -0.005,0.426 -0.716,1.148 -0.214,1.466 0.481,0.307 1.259,0.373 1.615,-0.041 0.287,-0.336 -0.06,-0.989 0.364,-1.37 0.81,0.273 1.763,0.337 2.472,0.722 -0.251,0.641 0.126,1.11 0.638,1.295 0.625,0.225 -0.097,0.376 -0.178,0.379 -0.568,0.032 -0.698,0.761 -0.299,1.033 0.335,0.227 0.872,0.057 0.907,-0.403 0.016,-0.204 0.123,-0.659 0.564,-0.327 0.527,0.398 1.038,1.021 1.459,1.13 1.779,0.46 3.039,1.337 4.896,1.666 1.488,-0.408 2.736,-1.157 4.837,-1.013 0.584,-2.312 -1.016,-3.514 -1.566,-3.989 -0.016,-3.113 0.968,-5.162 2.287,-6.231 0.29,-2.692 2.095,-4.087 3.475,-5.57 0.535,-0.575 1.544,0.133 1.966,-0.761 0.795,-1.688 2.38,-2.753 3.229,-3.828 0.702,-0.887 1.331,-1.378 1.963,-1.776 1.504,-0.945 3.412,0.278 4.175,0.567 0.47,0.178 0.556,-1.221 -0.048,-1.388 -0.972,-0.269 -1.968,-0.608 -2.954,-0.612 -0.495,-0.001 -0.651,-0.7 -0.355,-1.046 0.574,-0.671 1.689,-1.096 2.95,-1.016 2.406,-0.584 4.157,-1.607 5.582,-3.013 0.662,-0.654 0.761,-1.658 0.716,-2.517 -0.052,-0.963 -0.518,-1.986 0.006,-2.883 -0.242,0 -1.057,0.092 -1.148,0 -0.387,-0.394 0.233,-1.138 0.832,-0.91 0.225,-0.708 0.983,-1.402 1.75,-1.001 0.286,0.148 0.667,0.314 1.13,0.143 0.494,-0.181 0.633,-0.838 1.025,-1.429 0.278,-0.421 -0.017,-1.515 0.668,-1.533 1.002,-0.024 2.053,-0.456 2.994,-0.256 0.38,0.081 0.617,0.787 1.146,0.544 0.292,-0.134 1.143,-0.596 1.438,-0.716 0.39,-0.159 0.288,-0.931 0.113,-0.855 -0.69,0.301 -1.291,0.553 -2.003,0.72 -0.339,0.08 -0.225,-1.212 -1.109,-0.998 -0.935,0.226 -1.823,0.66 -2.762,0.811 -0.186,-0.765 0.253,-1.419 0.669,-2.045 0.086,-0.128 1.188,-0.216 1.277,-0.38 0.531,-0.984 -0.78,-0.454 -0.974,-0.184 -1.437,-0.359 -2.691,0.043 -3.517,0.912 -0.21,0.221 0.028,0.743 -0.114,0.933 -0.707,0.939 -1.621,1.553 -2.817,1.649 -0.374,0.03 -0.82,-0.471 -0.626,-0.92 0.164,0.355 0.621,0.247 0.875,0.152 0.308,-0.117 0.647,-0.433 0.609,-0.879 -0.048,-0.56 -0.674,-0.894 -0.597,-1.198 0.238,-0.945 0.657,-1.83 1.18,-2.549 -0.293,-0.603 -0.576,-1.703 0.081,-1.874 1.053,-0.276 2.069,0.221 3.016,0.672 0.386,0.184 0.795,-0.204 0.534,-0.53 -1.07,-1.333 -2.762,-2.028 -3.898,-3.334 -0.164,-0.188 -0.03,-0.818 -0.528,-0.847 -0.71,-0.042 -1.048,-1.021 -1.862,-0.677 0.239,-0.68 -0.523,-1.211 -1.073,-1.307 -1.046,-0.181 -0.923,1.43 -1.816,2.145 -0.834,-0.881 -0.145,-2.155 -0.447,-3.073 -0.104,-0.314 -1.34,-0.954 -1.511,-0.949 -2.045,0.057 -2.824,-1.748 -3.775,-2.847 -0.259,-0.298 -1.283,-0.463 -1.447,0.3 -0.092,0.431 0.492,1.154 0.07,1.429 -0.636,0.415 -1.07,-0.299 -1.122,-0.741 -0.048,-0.405 -0.641,-0.928 -0.01,-1.194 0.217,-0.091 1.12,0.256 0.802,-0.345 -0.526,-0.989 -1.17,-2.016 -1.402,-3.406 0.594,-0.961 1.589,-1.957 2.411,-2.999 -0.548,-0.586 -1.722,0.444 -2.153,0.084 -0.916,-0.763 -1.563,-1.707 -1.739,-2.118 -0.781,-1.829 -1.526,-3.55 -1.408,-5.676 0.034,-0.621 0.128,-1.283 0.376,-2.002 -0.407,0.211 -1.191,1.303 -1.566,2.014 -0.85,1.614 -1.336,3.386 -1.38,5.379 -0.725,1.229 -1.87,1.86 -3.246,1.979 -0.503,0.044 -1.122,0.682 -1.59,0.138 -0.178,-0.207 0.126,-1.029 -0.577,-0.677 0.092,0.344 -0.024,0.737 -0.389,0.913 -0.736,0.356 -1.083,-0.514 -1.52,-0.933 0.183,-0.622 0.456,-1.34 0.863,-1.955 0.329,-0.496 1.097,-0.786 1.304,-1.328 0.207,-0.541 0.03,-2.447 -0.035,-3.046 -0.049,-0.446 -0.703,-0.235 -0.909,-0.156 -1.11,0.426 -1.771,1.355 -2.535,1.712 -0.999,0.466 -1.696,1.343 -2.502,1.484 -1.214,0.211 -2.447,0.188 -2.81,1.026 -0.264,0.61 0.186,1.276 0.054,1.803 -0.118,0.467 -0.808,0.749 -1.341,0.652 -0.735,-0.131 -1.785,0.082 -2.046,-0.572 -0.284,-0.712 -0.678,-1.47 -1.37,-1.722 0.055,0.507 0.022,1.203 0.548,1.568 -0.33,0.336 -0.985,0.803 -1.315,0.275 -0.284,-0.455 -0.477,-0.97 -0.357,-1.548 1.109,-0.238 1.043,-2.235 1.611,-2.104 1.069,0.246 1.847,1.33 3.337,1.227 -0.438,-1.37 -1.899,-2.348 -2.788,-3.021 -0.709,-0.535 -1.79,-1.931 -1.77,-2.52 0.054,-1.529 0.181,-2.774 0.532,-3.717 0.11,-0.298 -0.49,-0.855 -0.933,-0.651 -0.622,0.287 -0.526,0.995 -0.375,1.536 0.141,0.505 0.472,1.034 0.29,1.58 -0.19,0.569 -1.24,-0.219 -1.395,0.352 -0.236,0.87 0.508,1.819 0.212,2.781 -0.265,0.861 -0.741,1.81 -1.617,2.103 -0.051,1.848 0.532,3.522 1.163,4.501 0.169,0.262 -0.214,1.067 -0.623,1.071 -0.552,0.007 -0.958,0.354 -1.271,0.801 0.239,0.331 -0.328,0.839 -0.694,0.552 -0.236,-0.187 -0.63,-0.467 -0.488,-0.896 0.47,-1.419 -0.051,-2.66 -0.835,-3.503 0.322,-0.624 -0.159,-0.828 -0.65,-0.603 0.353,0.854 0.943,1.805 0.978,3.039 -1.206,0.396 -3.064,0.429 -4.084,-0.352 -1.589,-1.218 -2.897,-2.721 -4.573,-3.984 -0.2,-0.151 -0.809,0.189 -1.048,-0.239 -0.459,-0.824 -0.752,-1.906 -2.052,-2.265 0.323,1.136 0.988,2.679 1.279,3.902 -0.534,0.35 -2.032,0.667 -1.143,1.749 0.55,0.669 -0.258,1.633 -0.087,2.279 0.209,0.784 0.998,1.059 1.691,1.056 -0.286,-0.6 -0.327,-1.267 -0.261,-1.99 1.665,0.085 3.012,1.114 3.874,2.282 -0.284,0.302 -1.176,0.156 -1.753,0.162 -0.361,0.958 0.698,1.402 0.956,2.182 0.156,0.474 -0.496,1.184 -0.891,1.203 l -4.815,0.236 c 1.175,0.623 1.571,2.569 0.929,4.086 -0.872,-0.338 -1.703,0.484 -1.671,1.232 -0.75,0.053 -1.034,-0.726 -1.522,-0.789 -0.713,-0.093 -0.327,1.108 -0.362,1.751 -1.359,-0.157 -2.128,-1.193 -3.149,-1.662 -0.288,-0.132 -0.763,0.047 -0.355,0.387 0.288,0.241 0.193,1.158 -0.161,0.937 -1.517,-0.946 -4.082,-1.069 -6.35,-1.613 -0.122,0.343 -0.456,0.961 -0.917,0.715 -0.243,-0.13 -0.823,-0.825 -1.087,-0.873 -0.21,-0.037 -1.511,-0.452 -0.895,0.388 0.713,0.972 1.924,1.339 3.319,1.59 0.174,-0.289 0.305,-0.978 0.918,-0.797 0.567,0.168 1.327,0.1 1.812,0.301 1.784,0.741 3.324,1.786 5.389,2.33 0.669,0.178 1.048,0.76 1.551,1.19 -0.549,0.684 -0.191,2.019 -1.139,2.326 -0.745,0.243 -1.294,-0.774 -2.258,-1.291 -0.123,-0.067 -0.628,0.336 -0.101,0.6 0.825,0.413 1.297,1.348 1.566,2.236 -0.611,-0.171 -1.097,-0.425 -1.677,-0.306 -0.347,-0.513 -1.795,-2.088 -1.784,-2.634 0.018,-0.914 -0.635,-1.406 -1.191,-1.868 -0.251,-0.209 -0.619,-0.059 -0.27,0.53 0.508,0.858 0.764,1.996 1.674,2.671 0.312,0.232 0.093,2.47 0.117,3.118 -0.733,0.18 -1.014,-0.78 -1.603,-0.314 -0.247,0.194 -0.727,0.994 -1.049,0.532 -1.13,-1.62 -2.914,-2.741 -3.997,-4.504 -0.846,-1.378 -2.661,-1.852 -2.92,-3.722 -0.276,-0.062 -0.857,-0.175 -0.608,0.298 0.224,0.426 0.165,1.186 -0.515,1.157 -0.255,0.84 -0.554,2.144 0.318,2.75 0.377,0.263 0.552,-0.785 1.157,-0.856 0.615,-0.072 1.602,0.772 1.625,1.438 0.037,1.08 1.027,2.645 2.356,2.39 0.533,1.488 0.572,3.024 0.698,4.591 0.052,0.655 1.117,1.26 1.502,2.031 0.267,0.536 -0.183,1.013 -0.727,1.229 -0.246,0.098 -1.175,0.494 -0.736,0.899 0.929,0.857 2.449,1.648 2.221,3.386 -0.055,0.414 -0.474,0.67 -0.928,0.582 -3.58,-0.694 -7.489,-1.104 -10.332,-2.567 -1.175,-0.604 -2.527,-0.887 -4.148,-1.003 -0.444,-0.033 -0.538,0.697 -0.163,0.992 1.062,0.835 2.068,1.844 3.415,2.309 1.352,0.466 2.026,-1.049 2.407,-0.994 6.07,0.866 9.96,3.746 13.432,6.787 0.571,0.501 -0.644,0.735 -0.612,0.225 -0.372,0.007 -1.173,0.039 -0.878,0.354 1.066,1.142 2.544,2.241 3.336,3.339 0.507,0.704 1.468,0.424 1.975,0.698 0.45,0.243 0.872,0.842 0.986,1.441 -0.636,0.361 -1.431,0.328 -1.702,1.038 -0.223,0.58 0.03,1.422 0.751,1.473 1.374,0.096 2.746,0.343 3.776,1.087 1.117,0.804 2.765,0.546 3.834,1.435 0.912,0.758 1.415,1.836 2.051,2.846 1.478,0.028 2.927,0.77 3.169,2.102 0.22,1.216 -1.06,1.967 -1.086,2.87 -0.019,0.653 0.225,1.207 0.143,1.897 0.902,0.672 1.53,-0.835 2.169,-1.273 0.739,-0.508 1.424,-1.182 2.234,-1.224 0.559,-0.029 1.427,0.38 1.305,0.823 -0.281,1.016 -0.227,2.277 -0.154,3.63"
         inkscape:connector-curvature="0" />
    </g>
  </g>
</svg>
