<?xml version="1.0" encoding="UTF-8" standalone="no"?>
<!-- Created with Inkscape (http://www.inkscape.org/) -->

<svg
   id="svg3040"
   sodipodi:docname="splat2.svg"
   viewBox="0 0 418.04 934.68"
   version="1.1"
   inkscape:version="1.1 (c68e22c387, 2021-05-23)"
   xmlns:inkscape="http://www.inkscape.org/namespaces/inkscape"
   xmlns:sodipodi="http://sodipodi.sourceforge.net/DTD/sodipodi-0.dtd"
   xmlns="http://www.w3.org/2000/svg"
   xmlns:svg="http://www.w3.org/2000/svg"
   xmlns:rdf="http://www.w3.org/1999/02/22-rdf-syntax-ns#"
   xmlns:cc="http://creativecommons.org/ns#"
   xmlns:dc="http://purl.org/dc/elements/1.1/">
  <defs
     id="defs10" />
  <sodipodi:namedview
     id="base"
     bordercolor="#666666"
     inkscape:pageshadow="2"
     inkscape:window-y="-8"
     fit-margin-left="0"
     pagecolor="#ffffff"
     fit-margin-top="0"
     inkscape:window-maximized="1"
     inkscape:zoom="0.35"
     inkscape:window-x="-8"
     inkscape:window-height="1017"
     showgrid="false"
     borderopacity="1.0"
     inkscape:current-layer="layer1"
     inkscape:cx="901.42857"
     inkscape:cy="458.57143"
     fit-margin-right="0"
     fit-margin-bottom="0"
     inkscape:window-width="1920"
     inkscape:pageopacity="0.0"
     inkscape:document-units="px"
     inkscape:pagecheckerboard="0" />
  <g
     id="layer1"
     inkscape:label="Layer 1"
     inkscape:groupmode="layer"
     transform="translate(608.26 -57.879)">
    <g
       id="g3023"
       style="fill:#b22222;fill-opacity:1"
       transform="matrix(2.3682 0 0 2.3682 -2522.2 46.561)">
      <path
         id="path3416"
         style="fill:#b22222;fill-opacity:1"
         inkscape:connector-curvature="0"
         d="m907.46 399.2c0-0.62-1.9-0.93-2.2-0.37-0.2 0.35 0.2 0.63 0.9 0.63s1.3-0.12 1.3-0.26zm68.7-32.97c0.2-0.36 0-0.65-0.6-0.65-0.5 0-0.9 0.29-0.9 0.65s0.2 0.65 0.6 0.65c0.3 0 0.7-0.29 0.9-0.65zm-17.6-9.39c-0.2-0.57-0.7-1.03-1-1.03-0.8 0-0.3 1.48 0.6 1.8 0.5 0.16 0.6-0.14 0.4-0.77zm18.3-6.24c-0.2-0.36-0.5-0.65-0.7-0.65s-0.3 0.29-0.3 0.65c0 0.35 0.3 0.65 0.7 0.65s0.5-0.3 0.3-0.65zm1.8-5.22c0.3-0.35 0.1-0.65-0.2-0.65-0.4 0-0.7 0.3-0.7 0.65 0 0.36 0.1 0.66 0.3 0.66 0.1 0 0.4-0.3 0.6-0.66zm-9.7-3.18c0-0.35-0.3-0.83-0.6-1.05-0.4-0.22-0.6-0.11-0.6 0.25s0.2 0.83 0.6 1.05c0.3 0.22 0.6 0.11 0.6-0.25zm6.6-6.59c0.2-0.36-0.1-0.65-0.6-0.65-0.6 0-0.9 0.29-0.6 0.65 0.2 0.36 0.4 0.65 0.6 0.65 0.1 0 0.4-0.29 0.6-0.65zm-11.1-2.73c1.1-1.16 0.9-2.48-0.4-2.48-1.6 0-3.5 1.61-3 2.51 0.6 0.98 2.4 0.96 3.4-0.03zm-5.4-0.92c0.3-0.26 0.5-0.92 0.5-1.47 0-0.74-0.2-0.81-0.7-0.28-0.4 0.4-0.6 1.07-0.5 1.48 0.2 0.41 0.5 0.53 0.7 0.27zm23.3-7.2c1.1-1.16 0.4-2.19-1.3-1.77-2.5 0.61-2.9 0.98-1.9 1.62 1 0.67 2.6 0.75 3.2 0.15zm-90.3-2.17c-1-0.65-2.1 1.38 0 0zm92.2-1.74c0.8-0.79 0.4-2.83-0.5-2.83-0.4 0-1.3 0.74-1.9 1.63-1 1.58-0.9 1.63 0.5 1.63 0.8 0 1.7-0.2 1.9-0.43zm-84.7-3.55c0.7-1.07 0.8-1.74 0.2-2.92-1.3-2.96-5-2.8-5.8 0.23-0.8 3.29 3.7 5.46 5.6 2.69zm66.5-13.28c-0.2-0.54-0.6-0.81-0.9-0.61-0.7 0.43-0.2 1.58 0.7 1.58 0.3 0 0.4-0.43 0.2-0.97zm-55.1-5.54c-0.3-0.36-0.6-0.65-0.7-0.65-0.2 0-0.3 0.29-0.3 0.65s0.3 0.65 0.7 0.65c0.3 0 0.5-0.29 0.3-0.65zm-2.1-1.75c-0.5-0.19-1-0.16-1.2 0.05-0.2 0.22 0.1 0.37 0.8 0.34s0.9-0.18 0.4-0.39zm14.6-0.86c-0.2-0.36-0.8-0.65-1.3-0.65s-0.9 0.29-0.9 0.65 0.6 0.65 1.3 0.65 1.1-0.29 0.9-0.65zm-25.7-0.65c-0.2-0.36-0.7-0.65-1-0.65s-0.6 0.29-0.6 0.65 0.4 0.65 1 0.65c0.5 0 0.8-0.29 0.6-0.65zm14.3-0.4c1-1.08 0.3-2.76-1.4-3.4-2.3-0.82-3.9 0.56-2.8 2.39 0.7 1.14 3.4 1.8 4.2 1.01zm-16.9-7.19c0.5-1.41 0-1.98-1.6-1.86-1.9 0.14-1.9 1.64-0.1 2.33 1 0.38 1.5 0.25 1.7-0.47zm4.6-0.35c-0.4-1.21-1.7-1.41-1.7-0.26 0 0.57 0.4 1.04 1 1.04 0.5 0 0.9-0.35 0.7-0.78zm15.2-0.53c0-0.36-0.4-0.65-0.9-0.65s-0.9 0.29-0.9 0.65 0.4 0.65 0.9 0.65 0.9-0.29 0.9-0.65zm34.7-3.34c1.1-0.65 1.6-5.13 0.6-5.13s-2.6 2.37-2.6 3.76c0 1.73 0.6 2.18 2 1.37zm-26.7-1.02c-0.6-0.6-1.2-0.91-1.4-0.69-0.6 0.64 0.3 1.8 1.5 1.8 0.9 0 0.9-0.09-0.1-1.11zm-18.6-1.34c0-1.98-2-1.92-4.2 0.13l-1.8 1.6 3-0.13c2.6-0.12 3-0.3 3-1.6zm16.3-0.16c0-0.36-0.3-0.65-0.6-0.65-0.4 0-0.7 0.29-0.7 0.65s0.3 0.65 0.7 0.65c0.3 0 0.6-0.29 0.6-0.65zm-8.2 0c0-0.36-0.3-0.65-0.6-0.65s-0.6 0.29-0.6 0.65 0.3 0.65 0.6 0.65 0.6-0.29 0.6-0.65zm21.8-3.65c0.5-1.3-1.1-2.38-2.1-1.48-0.9 0.82-0.4 2.52 0.8 2.52 0.5 0 1.1-0.47 1.3-1.04zm-29.7-0.84c0.7-1.19-2-3.73-2.9-2.75-0.5 0.53-0.5 0.72 0.2 0.72 0.6 0 1.3 0.65 1.6 1.43 0.5 1.04 0.8 1.2 1.1 0.6zm-10.3-0.31c0.5-0.67 0.5-1.06-0.1-1.58-7-4.63-5.6 4.73 0.1 1.58zm54.9-1.06c0.3-0.36 0-0.66-0.5-0.66-0.6 0-1 0.3-1 0.66 0 0.35 0.2 0.65 0.6 0.65 0.3 0 0.7-0.3 0.9-0.65zm-26.6 0c0-0.36-0.3-0.66-0.7-0.66-0.3 0-0.6 0.3-0.6 0.66 0 0.35 0.3 0.65 0.6 0.65 0.4 0 0.7-0.3 0.7-0.65zm-10.8-0.79c0.4-0.43 0.7-1.29 0.7-1.91 0-0.63 0.3-1.32 0.7-1.54 1.1-0.71 0.6-2.28-0.7-2.28-0.7 0-1.2 0.42-1.2 0.92 0 0.7-0.5 0.8-1.8 0.42-1-0.3-1.6-0.87-1.4-1.41 0.1-0.5 0.3-1.42 0.5-2.05 0.2-0.73 0-1.14-0.7-1.14-0.5 0-1.3-0.37-1.8-0.82-1.7-1.74-4.4-3.17-5.2-2.83-1.5 0.58-1.1 2.29 0.6 2.73s2 0.93 1 1.93c-1 1.12-1 3.86 0 3.94 2.2 0.17 2.5 0.33 2.5 1.53 0 2.55 5 4.39 6.8 2.51zm-1.5-5.73c0.2-0.36 0.1-0.65-0.2-0.65-0.4 0-0.7 0.29-0.7 0.65s0.1 0.65 0.3 0.65c0.1 0 0.4-0.29 0.6-0.65zm-16.5-1.75c-0.4-0.18-1-0.16-1.2 0.05-0.2 0.22 0.2 0.38 0.8 0.35 0.8-0.03 0.9-0.19 0.4-0.4zm4.6-1.51c-0.2-0.35-0.5-0.65-0.7-0.65-0.1 0-0.2 0.3-0.2 0.65 0 0.36 0.3 0.66 0.6 0.66 0.4 0 0.5-0.3 0.3-0.66zm67.1-1.89c0.6-0.88-0.3-2.67-1.2-2.67-1.1 0-2.4 1.75-1.9 2.58 0.5 0.84 2.6 0.9 3.1 0.09zm-19.7-2.67c0-0.35-0.4-0.65-1-0.65-0.5 0-0.8 0.3-0.6 0.65 0.2 0.36 0.7 0.66 1 0.66s0.6-0.3 0.6-0.66zm-40.8 0c1.6-2.73-0.8-2.56 0 0zm14.4-3.91c0-0.35-0.6-0.65-1.3-0.65s-1.1 0.3-0.9 0.65c0.2 0.36 0.8 0.66 1.3 0.66s0.9-0.3 0.9-0.66zm-6.6-0.65c-0.2-0.36-0.5-0.65-0.6-0.65-0.2 0-0.3 0.29-0.3 0.65s0.3 0.65 0.7 0.65c0.3 0 0.5-0.29 0.2-0.65zm13.8-1.31c-0.2-0.36-0.6-0.49-0.9-0.29-0.9 0.56-0.7 0.95 0.4 0.95 0.5 0 0.8-0.3 0.5-0.66zm-13.6-1.07c1.1-0.46 1-1.31-0.3-1.8-1-0.43-2.2 0.77-1.7 1.71 0.4 0.57 0.8 0.59 2 0.09zm28.7-3.48c0.2-0.36 0.1-0.65-0.3-0.65-0.3 0-0.6 0.29-0.6 0.65s0.1 0.65 0.2 0.65c0.2 0 0.5-0.29 0.7-0.65zm-27-3.91c0.2-0.36 0-0.65-0.6-0.65-0.5 0-0.9 0.29-0.9 0.65s0.2 0.65 0.5 0.65c0.4 0 0.8-0.29 1-0.65zm14.5-0.9c-1.1-0.49-2.6-1.07-3.5-1.29-1.3-0.32-1.2-0.23 0.3 0.49 1.1 0.49 2.6 1.07 3.5 1.29 1.2 0.32 1.2 0.22-0.3-0.49zm-18.6 0.26c-2.7-2.7-3 0.43 0 0zm12.7-2.41c-0.4-0.19-1-0.16-1.2 0.05-0.2 0.22 0.2 0.37 0.8 0.34 0.8-0.03 0.9-0.18 0.4-0.39zm-2.5-0.65c-0.4-0.19-1-0.17-1.2 0.05s0.2 0.37 0.8 0.34c0.8-0.03 0.9-0.18 0.4-0.39zm54.5-18.71c0-0.14-0.4-0.42-0.9-0.63-0.6-0.2-1-0.09-1 0.26s0.4 0.63 1 0.63c0.5 0 0.9-0.11 0.9-0.26zm-47.7-2.07c0-0.6-0.4-0.94-1.1-0.81-1.5 0.32-1.7 1.84-0.2 1.84 0.8 0 1.3-0.42 1.3-1.03zm41.9-1.36c1.1-0.46 1-2.17-0.2-2.17-0.5 0-0.9 0.58-0.9 1.3s0.1 1.28 0.1 1.25c0.1-0.03 0.6-0.2 1-0.38zm-36.7-3.89c0.6-0.61-0.1-1.54-1.2-1.54-0.5 0-0.9 0.44-0.9 0.98 0 0.98 1.4 1.34 2.1 0.56zm21.9-2.97c-0.6-0.61-0.9-0.61-1.5 0s-0.4 0.78 0.8 0.78c1.1 0 1.3-0.17 0.7-0.78zm-17.4-12.62c0.4-1.31-0.7-3.54-1.8-3.54-1.3 0-1.7 0.99-1.3 2.9 0.5 1.86 2.4 2.28 3.1 0.64zm7.9 0.26c0-0.12 0.1-1.16 0.2-2.32 0.2-1.89 0.1-2.03-1-1.42-1.3 0.74-1.3 3.24 0 3.69 0.4 0.15 0.8 0.17 0.8 0.05zm38.8-4.08c0.6-0.73 0.5-1.27-0.6-2.57l-1.4-1.65-1.1 1.54c-0.7 0.85-1 2.01-0.8 2.58 0.4 1.28 2.9 1.35 3.9 0.1zm-23.8-1.67c0-0.36-0.5-0.66-1.2-0.66s-1.3 0.3-1.3 0.66c0 0.35 0.6 0.65 1.3 0.65s1.2-0.3 1.2-0.65zm1.8-2.01c-0.1-0.38-0.5-0.7-0.8-0.7-0.4 0-0.7 0.32-0.8 0.7-0.2 0.39 0.2 0.7 0.8 0.7 0.5 0 0.9-0.31 0.8-0.7zm-7-1.38c0.2-0.42 0.1-0.89-0.3-1.03s-0.7-1.34-0.7-2.66c0-2.12-0.3-2.51-2.1-3.22-1.8-0.72-2.1-0.67-3.1 0.51-1.4 1.76-0.7 3.91 1.4 4.69 1 0.34 1.9 1.05 2.1 1.56 0.4 1.13 2 1.22 2.7 0.15zm-36.2 0.09c0-0.38-0.3-0.51-0.6-0.29-0.4 0.22-0.7 0.54-0.7 0.69 0 0.16 0.3 0.29 0.7 0.29 0.3 0 0.6-0.31 0.6-0.69zm62.8-2.91c0.6-0.83 0.6-1.16-0.4-1.92-1-0.77-1.3-0.78-2.1-0.03-1 1.04-0.5 2.94 0.8 2.94 0.5 0 1.2-0.44 1.7-0.99zm-15.1-1.45c0.4-0.98 0.7-1.94 0.7-2.12-0.1-0.48-3.2-0.45-3.2 0.03 0 0.23-0.8 0.79-1.7 1.26l-1.8 0.84 2.2 0.84c3 1.14 2.9 1.17 3.8-0.85zm-19.5-1.12c0-0.58-0.3-0.81-0.9-0.58-0.5 0.21-0.9 0.64-0.9 0.96s0.4 0.58 0.9 0.58 0.9-0.43 0.9-0.96zm-3.8-0.47c1.2-1.28 0.8-1.83-1.2-1.83-1.6 0-1.9 0.23-1.6 1.03 0.2 0.57 0.4 1.15 0.4 1.3 0 0.59 1.6 0.23 2.4-0.5zm-10.7 0c1.3-1.42 0.9-2.58-1-2.36-2.1 0.25-3 3.14-0.9 3.14 0.6 0 1.5-0.35 1.9-0.78zm-16.8-2.53c0.4-0.75 0.5-1.85 0.2-2.44-0.2-0.6-0.4-1.7-0.3-2.45 0.2-1.65-0.9-2.6-3.4-3.11-3.4-0.24-5.8 4.45-1.9 6.09 1.2 0.4 2.2 1.27 2.4 1.99 0.4 1.67 2.1 1.63 3-0.08zm5.2-0.36c0.5-1.21-0.6-2.85-1.8-2.85-1.3 0-2.3 2.25-1.4 3.16 1.1 1.09 2.8 0.92 3.2-0.31zm50.6-0.78c0-1.43-1.4-2.23-2.8-1.64-1.6 0.62-0.8 2.48 1.1 2.71 1.4 0.16 1.7-0.06 1.7-1.07zm-47.7 0.5c0-0.38-0.3-0.51-0.6-0.29s-0.6 0.53-0.6 0.69 0.3 0.29 0.6 0.29 0.6-0.31 0.6-0.69zm24.1-0.4c1.1-1.19 0.3-2.24-1.6-2.05-2.8 0.28-3.3 2.49-0.7 2.49 1 0 2.1-0.2 2.3-0.44zm6.1-2.21c0-0.38-0.3-0.5-0.7-0.28-0.3 0.22-0.6 0.53-0.6 0.69 0 0.15 0.3 0.28 0.6 0.28 0.4 0 0.7-0.31 0.7-0.69zm2.5-0.61c0-0.36-0.3-0.65-0.7-0.65-0.3 0-0.6 0.29-0.6 0.65s0.3 0.65 0.6 0.65c0.4 0 0.7-0.29 0.7-0.65zm-67.5-43.89c0.7-0.26 0.9-0.84 0.6-1.65-0.2-0.69-0.1-1.44 0.3-1.67s0.7-0.72 0.7-1.07c0-0.36-0.3-0.49-0.6-0.29-0.3 0.21-1.2-0.4-1.9-1.35s-1.3-1.46-1.3-1.14c0 0.31-0.4 0.02-0.9-0.65-0.6-0.71-1.3-1.06-1.9-0.83-1.1 0.42-1.4 2.38-0.3 2.38 0.3 0 0.6 0.29 0.6 0.65 0 1.13-1.8 0.7-3.3-0.76l-1.3-1.41-1.5 1.74c-0.7 0.95-1.7 1.73-2 1.73-0.4 0-0.7 0.27-0.7 0.6-5.6 21.9 19 14.61 13.5 3.72zm94.7 41.5c0.8-0.89 0.3-1.6-1-1.4-1.7 0.26-2.3 1.84-0.7 1.84 0.7 0 1.4-0.2 1.7-0.44zm-50-1.92c-0.2-1.29 0-1.79 0.8-2.03 2.5-0.65 2.1-4.04-0.4-4.07-1.2-0.02-2.3 1.85-1.9 3.24 0.2 0.96 0 1.31-0.9 1.31-0.6 0-1.3 0.34-1.6 0.75-0.5 0.91 1.4 2.51 3.1 2.51 1 0 1.2-0.35 0.9-1.71zm41.2-0.16c0.9-0.99 0.9-3.35 0-3.35s-3.4 1.67-3.7 2.48c-0.7 2.05 2.1 2.72 3.7 0.87zm-54.2 0.56c0-0.36-0.4-0.65-1-0.65-0.5 0-0.9 0.29-0.9 0.65s0.4 0.65 0.9 0.65c0.6 0 1-0.29 1-0.65zm28.9-1.59c0-0.51-0.3-1.1-0.6-1.29-0.7-0.45-2.1 1.21-1.5 1.8 0.7 0.78 2.1 0.45 2.1-0.51zm-20.9-0.79c0.4-0.18 0.8-0.75 0.8-1.26 0-1.17-2.2-1.2-3.1-0.04-1.1 1.39 0.2 2.15 2.3 1.3zm-4.2-1.53c0-1.47-0.3-1.95-1.2-1.95-1.5 0-2.9 1.64-2.4 2.92 0.2 0.54 1.1 0.99 2 0.99 1.3 0 1.6-0.3 1.6-1.96zm21.9 0.19c1.3-0.52 1.9-1.54 1.9-3.28 0-1.18-0.3-1.47-1.8-1.47-2.1 0-3.1 1.04-3.4 3.31-0.1 1.64 1.3 2.27 3.3 1.44zm23.7-1.21c0.5-1.46-0.6-2.37-2.7-2.12-1.3 0.15-1.9 0.61-2 1.68-0.2 1.28 0 1.46 2 1.46 1.5 0 2.4-0.35 2.7-1.02zm-38.7 0.37c0-0.36-0.3-0.65-0.7-0.65-0.3 0-0.6 0.29-0.6 0.65s0.3 0.65 0.6 0.65c0.4 0 0.7-0.29 0.7-0.65zm-13.7 0.24c0.7-0.68-0.1-1.54-1.4-1.54-0.7 0-1.3 0.44-1.3 0.98 0 0.96 2 1.36 2.7 0.56zm2.8-3.31c1.3-0.46 0.9-1.49-0.4-1.49-0.7 0-1.3 0.28-1.3 0.61 0 0.84 0.8 1.23 1.7 0.88zm42.9-0.84c0-0.36-0.3-0.65-0.7-0.65s-0.5 0.29-0.3 0.65 0.5 0.65 0.7 0.65c0.1 0 0.3-0.29 0.3-0.65zm-2.3-1.44c1.4-2.04 1.3-2.47-0.8-2.47-2 0-3.5 1.46-3 2.93 0.6 1.46 2.7 1.19 3.8-0.46zm-17.6 0.25c0.6-0.65 1-1.56 1-2.01 0-0.46 0.6-1.57 1.3-2.48 1.6-2.08 1.6-4.38 0.1-5.95-1-1.01-1.1-1.46-0.4-2.66 0.4-0.79 0.6-2.08 0.6-2.86-0.1-0.78-0.2-2.07-0.3-2.88 0-1.1-0.4-1.47-1.5-1.47-2.7 0-4.1-1.93-5.3-7.44-0.6-2.84-1.3-4.85-1.6-4.46-0.2 0.38 0 1.82 0.5 3.2 2.1 6.48 1.7 9.6-1.4 9.2-0.7-0.09-1.3 0.09-1.3 0.41s-0.3 0.82-0.8 1.12c-0.7 0.44-0.7 0.79 0 1.87 0.7 1.19 0.6 1.41-0.8 1.94-0.8 0.33-1.7 1.26-2 2.06-0.6 2.07 1.3 3.32 4.6 3.05 2.9-0.22 3.3 0.12 1.7 1.43-1.1 1.03-1.2 2.61 0 2.61 0.5 0 1.3 0.41 1.8 0.91 0.5 0.49 1.4 1.01 2 1.14 1.8 0.36 1.9 1.86 0.1 1.86-1.6 0-3.2 1.42-2.5 2.17 0.8 0.84 3.2 0.41 4.2-0.76zm24.7-0.17c0.8-0.31 1.6-1.04 1.9-1.62 0.2-0.75 0.8-0.95 2.1-0.69 1.1 0.23 2 0.02 2.5-0.58 1.1-1.46 0.2-2.91-1.8-2.91-2.7 0-3.9 0.61-3.9 1.98 0 0.65-0.5 1.36-1.2 1.58-1.2 0.42-2.2 2.07-1.4 2.53 0.2 0.15 1.1 0.02 1.8-0.29zm-40.5-0.2c1.7-1.3 1.4-1.67-0.7-0.84-1.1 0.4-1.9 0.96-1.9 1.24 0 0.78 1.4 0.57 2.6-0.4zm0.8-3.14c1.5-2.19 1.2-2.93-1.3-3.41-2.4-0.47-4 0.38-4 2.2 0 2.77 3.7 3.61 5.3 1.21zm32.1-2.18c0.3-0.56 0.1-1.33-0.2-1.72-1-1.01-2.7-0.12-2.7 1.42 0 1.6 2.4 1.85 2.9 0.3zm-40.9-2.24c0.3-0.36 0.1-0.65-0.2-0.65-0.4 0-0.7 0.29-0.7 0.65s0.1 0.65 0.3 0.65c0.1 0 0.4-0.29 0.6-0.65zm62.6-2.65c0.6-0.36 1.4-1.23 1.8-1.94 0.6-1.09 0.4-1.42-1.5-2.32-2-0.98-2.2-0.98-3.8 0.07-3.6 2.51-0.3 6.51 3.5 4.19zm-13.9 0.05c0-0.36-0.5-0.65-1-0.65s-0.8 0.29-0.6 0.65c0.2 0.35 0.7 0.65 1 0.65s0.6-0.3 0.6-0.65zm-56.3-0.54c1.2-1.37 1.3-3.9 0.2-7.55-0.7-2.46-0.8-2.54-3.7-2.65-1.6-0.06-3 0.14-3 0.43s0.3 0.53 0.7 0.53c1.1 0 0.6 1-1.4 3.11-4.6 2.26 3.4 9.22 7.2 6.13zm61.8-0.9c1.1-1.15 0.9-2.47-0.4-2.47s-2.6 1.2-2.6 2.41c0 1.06 2 1.11 3 0.06zm-47.9-0.66c0.9-1.29 0.9-1.5 0-1.99-2.4-1.41-5.6 1.35-3.3 2.86 1.3 0.9 2.2 0.67 3.3-0.87zm4.7-1.14c0-0.35-0.4-0.46-0.9-0.26-0.5 0.21-1 0.49-1 0.63 0 0.15 0.5 0.26 1 0.26s0.9-0.28 0.9-0.63zm-5.4-4.52c1.4-2.56 1.3-2.78-0.9-2.55-2.7 0.28-3.8 2.1-2.1 3.43 1.6 1.31 1.7 1.29 3-0.88zm-6.9 1.46c0.8-0.9 0.4-2.17-0.9-2.17-0.8 0-1.2 0.43-1.2 1.3 0 1.26 1.2 1.77 2.1 0.87zm45.2-1.24c0.3-0.77 0-0.97-1-0.81-0.7 0.11-1.4 0.57-1.6 1.02-0.4 1.2 2.2 1 2.6-0.21zm-104.7-0.94c0.2-0.4 0.8-0.57 1.3-0.38 3.1 1.22 6.2-3.79 4.4-7.1-0.4-0.72-0.7-1.75-0.7-2.28 0-0.61-0.6-0.98-1.6-0.98-1.1 0-1.5-0.31-1.4-1.15 0.3-1.91-1.7-2.18-3.1-0.42-0.8 1.04-1.1 1.19-0.9 0.44 0.4-1.42-1.9-2.94-2.9-1.89-0.5 0.48-0.4 0.99 0.1 1.71 0.7 0.79 0.7 1.39 0.1 2.66-0.9 2.06-0.9 2.98 0 5.28 0.4 1.01 0.8 2.42 0.8 3.14 0.1 1.47 3.1 2.23 3.9 0.97zm94.2-2.35 1.7-1.71-1.5-0.88c-3-1.7-5-0.52-5 2.95 0 1.97 2.8 1.76 4.8-0.36zm-42.5-1.23c0.5-0.55 0.7-1.15 0.5-1.33-0.1-0.18-0.6 0.13-1.1 0.68-0.4 0.56-0.6 1.16-0.5 1.34 0.2 0.18 0.7-0.13 1.1-0.69zm20.6-0.47c0.5-0.43 1.4-0.8 2.2-0.81 0.7-0.01 1.4-0.42 1.6-0.9 0.2-0.7-0.3-0.79-2.5-0.42-2.9 0.51-4.5 1.43-3.9 2.35 0.5 0.82 1.7 0.72 2.6-0.22zm30.6-0.55c0.3-0.38 0.3-0.85 0.1-1.05-0.5-0.54-2.3 0.3-2.3 1.08 0 0.88 1.7 0.86 2.2-0.03zm6.5-1.39c1-1.03 0.9-2.47-0.1-2.47-1.2 0-3.6 1.97-3.2 2.65 0.5 0.85 2.4 0.75 3.3-0.18zm-66.4-0.84c0-0.54-0.3-0.98-0.7-0.98-0.3 0-0.6 0.44-0.6 0.98 0 0.53 0.3 0.97 0.6 0.97 0.4 0 0.7-0.44 0.7-0.97zm42.7-2.75c-1.6-2.45-3.1-3.63-2.1-1.72 0.4 0.67 1.3 1.81 2.1 2.52l1.4 1.3-1.4-2.1zm-13.6 0.79c0.2-0.53 0.1-0.97-0.2-0.97s-0.7 0.44-0.9 0.97c-0.2 0.54-0.1 0.98 0.2 0.98s0.7-0.44 0.9-0.98zm-2.9-0.34c2.7-1.14 0.9-3.81-1.9-2.87-1.1 0.35-1.2 0.19-0.8-1.12 0.2-0.84 1-2.33 1.6-3.3 1.5-2.22 1.5-2.47-0.1-2.47h-1.3l1.3-1.7c1.5-1.98 1.2-2.86-0.9-2.86-2 0-3.3 2.28-1.8 3.15 1 0.53 0.8 0.75-0.8 1.64-2 1.06-3.6 4.07-3.2 6.02 0.1 0.62 1.1 1.47 2.3 1.89 1.2 0.41 2.3 1.1 2.4 1.52 0.3 0.89 1.2 0.92 3.2 0.1zm34.7-0.98c0.8-1.12 0.9-1.06-1.5-2.13-2-0.88-4.2-0.1-4.2 1.47 0 1.19 1.3 1.62 2.7 0.89 0.7-0.37 1.1-0.34 1.1 0.09 0 0.99 0.9 0.82 1.9-0.32zm-48.7-1.37c1.2-1.22 0.6-2.08-1.5-2.34-1.9-0.23-3.4 1.84-2 2.76 1.4 0.9 2.3 0.79 3.5-0.42zm-42.8-2.63c0.2-0.24 0.4-0.82 0.4-1.3 0-1.33-1.7-1.03-2.5 0.43-0.5 1.09-0.5 1.31 0.5 1.31 0.7 0 1.4-0.2 1.6-0.44zm88.6-0.87c0.2-0.35 0.1-0.65-0.3-0.65-0.3 0-0.6 0.3-0.6 0.65 0 0.36 0.1 0.66 0.3 0.66 0.1 0 0.4-0.3 0.6-0.66zm-42-0.26c0.9-0.71 1-1.14 0.5-1.7-1.1-1.2-3.7-0.52-3.7 0.98 0 1.62 1.5 1.97 3.2 0.72zm-56.8-0.71c0-0.6-0.3-0.98-0.7-0.86-0.4 0.13-0.7 0.52-0.7 0.86s0.3 0.72 0.7 0.85 0.7-0.26 0.7-0.85zm71.5-0.29c0.5-0.36 0.6-0.88 0.2-1.57-0.5-0.93-0.6-0.9-1.3 0.21-0.8 1.4-0.2 2.18 1.1 1.36zm-56.6-1.78c-0.3-1.63-1.8-1.86-1.8-0.27 0 0.8 0.4 1.36 1 1.36s0.9-0.44 0.8-1.09zm-9.3-0.92c3.6-3.48 1.3-7.82-2.5-4.61-1.3 1.05-1.4 1.43-0.7 2.25 0.5 0.67 0.5 1.13 0.1 1.42-0.4 0.23-0.7 0.81-0.7 1.29 0 1.69 1.8 1.53 3.8-0.35zm41.7 0.05c0.3-0.35 0-0.65-0.5-0.65-0.6 0-1 0.3-1 0.65 0 0.36 0.2 0.66 0.6 0.66 0.3 0 0.7-0.3 0.9-0.66zm27.4-1.3c0-0.36-0.5-0.65-1-0.65s-0.9 0.29-0.9 0.65 0.4 0.65 0.9 0.65 1-0.29 1-0.65zm-13.9-1.26c1.2-2.21 0.8-3.5-0.7-3.06-0.8 0.22-1.6 0.4-1.9 0.4-0.6 0.02-1.1 1.9-0.7 2.94 0.5 1.39 2.5 1.22 3.3-0.28zm16.2-2.03c1.9-1.52 1.8-2.34-0.2-2.86-1.8-0.47-4.9 1.17-4.5 2.41 0.5 1.41 3.3 1.68 4.7 0.45zm-29.3-0.31c0.9-1.73 0.4-2.91-1.3-2.91-1.4 0-2.8 1.64-2.3 2.83 0.6 1.64 2.7 1.69 3.6 0.08zm35.9 0.56c0.3-0.24 0.5-0.74 0.5-1.11 0-0.4-0.3-0.37-0.8 0.1-0.4 0.43-0.6 0.92-0.4 1.11 0.2 0.18 0.5 0.14 0.7-0.1zm-29.3-2.82c0.2-0.36-0.3-0.65-1-0.65s-1.1 0.29-0.9 0.65 0.6 0.65 0.9 0.65 0.7-0.29 1-0.65zm-28.1-0.22c0.4-0.49 0.6-1.05 0.4-1.26-0.6-0.63-2.2 0.24-2.2 1.22 0 1.15 0.9 1.17 1.8 0.04zm31.3-1.35c0.1-0.51 1-1.09 1.8-1.31 1.6-0.41 2.4-2.18 1.8-3.81-0.6-1.6-3.4-2.02-4.7-0.73-1.3 1.18-1.7 4.16-0.5 4.16 0.3 0 0.5 0.56 0.2 1.3-0.4 1.48 0.8 1.84 1.4 0.39zm15.7-1.57c3.2-2.08 3.4-3.12 0.7-3.73-1.2-0.24-2.4-0.71-2.8-1.04-0.4-0.38-1-0.03-1.7 1.03-1.1 1.73-1.3 2.89-0.6 4.55 0.5 1.38 1.3 1.24 4.4-0.81zm17-0.83c2.6-1.9 3.8-4.35 3-5.77-0.7-1.21-3.3-0.73-5.3 0.98-1.5 1.35-1.9 2.1-1.8 4.02 0.1 1.29 0.4 2.44 0.8 2.54 0.3 0.1 1.8-0.7 3.3-1.77zm-7.6 0.06c2.7-1.12 2.6-4.79-0.2-5.49-2.7-0.72-5.1 1.53-4.2 4.02 0.8 2.08 2 2.48 4.4 1.47zm-65.4-2c0.3-0.38 0.3-0.86 0.1-1.06-0.5-0.53-2.3 0.3-2.3 1.08 0 0.89 1.7 0.87 2.2-0.02zm-8.2-1.66c1.4-1.44 1.2-2.2-0.6-2.2-0.8 0-1.5 0.12-1.5 0.27s-0.2 0.7-0.4 1.22c-0.5 1.36 1.4 1.89 2.5 0.71zm4.8-0.57c0-0.54-0.3-0.98-0.7-0.98-0.3 0-0.6 0.44-0.6 0.98 0 0.53 0.3 0.97 0.6 0.97 0.4 0 0.7-0.44 0.7-0.97zm12.8-0.72c0.7-0.7 0.8-1.32 0.5-1.72-0.9-0.93-3.4 0.09-3.2 1.3 0.3 1.49 1.5 1.68 2.7 0.42zm-7.8 0.01c0-0.57-0.3-0.92-0.8-0.77-1.1 0.4-1.3 1.8-0.2 1.8 0.5 0 1-0.46 1-1.03zm36.4-0.08c1.6-0.25 4.1-3.52 3.3-4.34-0.2-0.22-1.7-0.41-3.4-0.41-2.4 0-3 0.24-3.3 1.26-0.4 1.16 0.8 4.08 1.5 3.85 0.2-0.05 1-0.21 1.9-0.36zm-6.1-0.51c-0.2-0.54-0.6-0.81-0.9-0.61-0.6 0.42-0.1 1.58 0.7 1.58 0.3 0 0.4-0.44 0.2-0.97zm-7.7-1.02c0-0.38-0.3-0.51-0.6-0.29-0.4 0.22-0.7 0.53-0.7 0.69s0.3 0.29 0.7 0.29c0.3 0 0.6-0.31 0.6-0.69zm-17.6-0.81c1.7-0.91 2.4-2.41 1.1-2.41-1 0-3.4 2.41-2.9 2.9 0.2 0.16 1-0.06 1.8-0.49zm6.9-0.46c1.2-0.26 1.9-0.52 1.4-0.56-0.4-0.05-0.8-0.51-0.8-1.03 0-1.09-0.6-1.57-3-2.29l-1.8-0.52 0.7 2.52c0.3 1.4 0.8 2.49 1 2.45 0.2-0.05 1.3-0.3 2.5-0.57zm14.2-0.69c0.6-1.14-0.1-1.38-1-0.3-0.5 0.62-0.5 0.99-0.1 0.99 0.3 0 0.8-0.31 1.1-0.69zm22.8-0.61c0-0.36-0.4-0.65-0.9-0.65s-0.9 0.29-0.9 0.65 0.4 0.65 0.9 0.65 0.9-0.29 0.9-0.65zm-6.6-0.45c0.8-0.87 0.4-2.77-0.6-2.39-1 0.41-1.2 1.9-0.4 2.46 0.3 0.19 0.7 0.16 1-0.07zm-37.3-1.04c0.5-0.44 1.1-1.23 1.2-1.77s0.3-1.42 0.5-1.95c0.4-1.6-3.3-5.68-4.9-5.49-0.8 0.09-2 0.19-2.6 0.22-1.6 0.08-2.6 2.78-2.1 5.48 0.3 1.73 0.9 2.51 2.5 3.3 2.5 1.24 4.1 1.3 5.4 0.21zm49-0.87c0-0.87-0.2-0.91-1-0.25-0.5 0.45-0.9 0.92-0.9 1.06s0.4 0.25 0.9 0.25 1-0.48 1-1.06zm-19.8 0.36c0.6-0.97-0.1-1.5-1.3-1.02-0.5 0.22-0.8 0.7-0.6 1.06 0.5 0.85 1.4 0.84 1.9-0.04zm-16.1-0.77c-0.5-0.45-1.4-1.24-2.1-1.77-0.9-0.7-0.9-0.49 0.3 0.81 0.8 0.98 1.7 1.77 2 1.77 0.4 0 0.2-0.36-0.2-0.81zm-24.4-0.49c0-0.71-0.3-1.3-0.6-1.3s-0.9 0.59-1.3 1.3c-0.5 1.11-0.4 1.3 0.6 1.3 0.9 0 1.3-0.42 1.3-1.3zm-3.8 0.04c0-0.34-0.2-0.79-0.6-1.02-0.3-0.22-0.6 0.06-0.6 0.62s0.3 1.01 0.6 1.01c0.4 0 0.6-0.27 0.6-0.61zm-5-0.17c0-0.43 0.9-1.73 2-2.89 2.8-2.97 1.5-5.52-2.2-4.54-1.7 0.42-2.9 3.18-2.9 6.36 0 1.54 0.2 1.85 1.6 1.85 0.8 0 1.5-0.35 1.5-0.78zm64-1.17c0-0.98-0.3-1.33-1.1-1.18-0.6 0.12-1.1 0.65-1.1 1.18s0.5 1.06 1.1 1.18c0.8 0.15 1.1-0.2 1.1-1.18zm-38.1-0.45c-0.5-0.18-1-0.16-1.2 0.06-0.2 0.21 0.1 0.37 0.8 0.34s0.9-0.19 0.4-0.4zm3.3-0.91c0.3-0.39 0.2-1.04-0.2-1.43-0.5-0.54-0.7-0.35-0.7 0.7 0 1.58 0.3 1.82 0.9 0.73zm83.8-0.63c0-0.38-0.3-0.51-0.6-0.29-0.4 0.22-0.6 0.53-0.6 0.69s0.2 0.29 0.6 0.29c0.3 0 0.6-0.31 0.6-0.69zm-78.7-0.9c0.9-0.7 1-1.12 0.5-1.68-1.2-1.24-3.7-0.51-3.9 1.15-0.2 1.74 1.4 2 3.4 0.53zm-6.7 0.41c0-0.29-0.4-1.1-0.9-1.79-0.7-0.99-1-1.1-1.6-0.48s-0.6 1 0 1.79c0.9 1.06 2.5 1.38 2.5 0.48zm67.2-1.47c0-0.38-0.3-0.51-0.6-0.29-0.4 0.23-0.7 0.54-0.7 0.69 0 0.16 0.3 0.29 0.7 0.29 0.3 0 0.6-0.31 0.6-0.69zm-14.4-0.99c1-1.27-0.1-2.2-2.6-2.22-2.5-0.01-2.8 1.7-0.4 2.55 2.3 0.86 2 0.89 3-0.33zm-83.3-1.02c0.6-0.34 1-1.21 1-1.93 0-1.92-3.3-1.48-3.6 0.48-0.2 1.61 1.1 2.33 2.6 1.45zm37.5-0.78c1-0.52 1.5-1.35 1.5-2.4 0-1.41-0.3-1.63-2.5-1.8-2.4-0.18-2.5-0.1-2.6 1.78-0.2 2.5 1.4 3.56 3.6 2.42zm-11.7-0.79c0.5-1.47 0.5-1.59-0.6-1.59-1.3 0-1.7 1.04-0.7 1.9 0.7 0.57 1 0.5 1.3-0.31zm-21.5-1.2c1.6-1.26 1.4-1.78-0.4-0.92-0.9 0.4-1.6 0.98-1.6 1.28 0 0.78 0.8 0.65 2-0.36zm8.7-0.71c0.4-0.55 0.6-1.67 0.3-2.58-0.3-1.4 0.1-1.93 3.3-4.18 2-1.41 4.3-2.58 5.2-2.59 1.3-0.02 4-0.39 4.9-0.67 0.2-0.05-0.3-0.69-1.1-1.43-0.8-0.83-1.8-1.19-2.5-0.95-2 0.64-9.8 6.19-9.8 6.92 0 0.37-1 1.5-2.2 2.49-1.4 1.24-2 2.16-1.7 2.89 0.5 1.33 2.5 1.39 3.6 0.1zm69.6-0.33c0-0.36-0.4-0.65-0.9-0.65s-0.9 0.29-0.9 0.65 0.4 0.65 0.9 0.65 0.9-0.29 0.9-0.65zm-55.6-0.44c0.2-0.24 0.4-0.82 0.4-1.3 0-0.97-1.6-1.19-2.1-0.29-0.5 0.72 1.1 2.18 1.7 1.59zm-29.7-0.21c0-0.36-0.3-0.66-0.7-0.66s-0.5 0.3-0.3 0.66c0.2 0.35 0.5 0.65 0.7 0.65s0.3-0.3 0.3-0.65zm97.6-0.66c0.2-0.35-0.1-0.65-0.6-0.65-0.6 0-0.9 0.3-0.7 0.65 0.2 0.36 0.5 0.66 0.7 0.66 0.1 0 0.4-0.3 0.6-0.66zm-21.2-0.46c1.3-0.26 2-1.49 0.9-1.49-0.4 0-0.8-0.62-1-1.38-0.2-1.12-0.6-1.31-1.9-0.97-1.1 0.29-1.6 0.15-1.6-0.41 0-0.61-0.2-0.59-0.6 0.08-0.3 0.49-0.4 1.37-0.3 1.95s0.2 1.42 0.2 1.87c0.1 0.8 1.5 0.92 4.3 0.35zm-41.6-0.84c0.2-0.36-0.1-0.65-0.6-0.65-0.6 0-0.9 0.29-0.6 0.65 0.2 0.36 0.5 0.65 0.6 0.65s0.4-0.29 0.6-0.65zm-25.9-1.49c1.7-0.74 3-1.74 3-2.21 0-1.04-0.3-1.07-1.9-0.19-1 0.53-1.2 0.47-1.2-0.29 0-0.53-0.5-1.25-1.1-1.6s-0.9-0.84-0.7-1.1c0.3-0.25 0.2-1.01-0.2-1.68-0.5-0.98-0.9-1.09-1.8-0.55-1.4 0.74-1.5 3.9-0.2 3.9 0.5 0 0.6 0.89 0.5 2.61-0.3 2.96-0.4 2.94 3.6 1.11zm35.4 0.14c0.2-0.38 0.2-0.85 0-1.05-0.5-0.54-2.3 0.3-2.3 1.08 0 0.88 1.7 0.86 2.3-0.03zm-15.6-1.25c0.1-2.34-0.4-2.45-2.1-0.49l-1.2 1.46-0.2-1.46c-0.2-1.72-0.7-1.82-2.4-0.49-1.2 0.97-1.2 0.98 0 1.95 0.7 0.54 2.3 0.98 3.6 0.98 2.1 0 2.3-0.15 2.3-1.95zm-28.4 1.3c0.2-0.36-0.1-0.65-0.6-0.65s-1 0.29-1 0.65 0.3 0.65 0.6 0.65 0.8-0.29 1-0.65zm50.8-0.65c0.2-0.36 0-0.65-0.6-0.65-0.5 0-0.9 0.29-0.9 0.65 0 0.35 0.2 0.65 0.6 0.65 0.3 0 0.7-0.3 0.9-0.65zm-13.1-0.05c0.4-0.79-0.1-1.58-1.2-1.58-0.4 0-0.8-0.59-0.9-1.31-0.4-2.03-1.4-2.93-3.3-2.93-2.4 0-3.5 1.55-2.7 3.79 0.5 1.49 0.9 1.74 2.9 1.68 1.3-0.04 2.3 0.18 2.3 0.49 0 0.8 2.4 0.69 2.9-0.14zm55.5-1.58c0-0.54-0.3-0.98-0.6-0.98-0.4 0-0.7 0.44-0.7 0.98s0.3 0.98 0.7 0.98c0.3 0 0.6-0.44 0.6-0.98zm-48.8-0.11c0.8-0.75 0.5-1.52-0.5-1.52-0.5 0-0.9 0.44-0.9 0.98 0 1.01 0.7 1.29 1.4 0.54zm41.3-0.87c0-0.36-0.3-0.65-0.7-0.65-0.3 0-0.6 0.29-0.6 0.65s0.3 0.65 0.6 0.65c0.4 0 0.7-0.29 0.7-0.65zm-69.5-0.43c0.8-0.88 0.4-2.18-0.8-2.18-1 0-1.9 1.16-1.9 2.34 0 0.44 2.2 0.31 2.7-0.16zm46.6-1.53c0.2-0.36-0.1-0.84-0.7-1.06-1.2-0.47-1.8 0.05-1.3 1.02 0.6 0.88 1.5 0.9 2 0.04zm-50.9-0.05c0.3-0.39 0.2-0.95-0.1-1.25-0.7-0.71-3.9-1.11-3.9-0.49-0.2 2.15 0.1 2.45 1.8 2.45 1 0 2-0.32 2.2-0.71zm55.6-1.25c0-0.36-0.5-0.65-1-0.65s-0.9 0.29-0.9 0.65 0.4 0.65 0.9 0.65 1-0.29 1-0.65zm-7.5-0.63 1.5-1.28-2.6-0.02c-2.8-0.02-4.1 1.02-2.7 2 1.4 0.86 2.2 0.71 3.8-0.7zm-12.9-0.02c0.2-0.36-0.2-0.65-0.9-0.65-0.8 0-1.3 0.29-1.3 0.65s0.4 0.65 0.9 0.65 1.1-0.29 1.3-0.65zm-10.8-0.77c-0.1-0.24 0-0.63 0.4-0.85 1.4-0.88 0.5-1.64-1.8-1.64-2.6 0-3.8 1.3-2.4 2.51 0.8 0.7 4.2 0.69 3.8-0.02zm28.9-0.9c0.6-0.57 1-1.29 1-1.62 0-0.81-3.5-2.62-4-2.08-0.3 0.25-0.7 0.02-1-0.51-0.4-0.59-0.6-0.66-0.6-0.18 0 0.42 0.2 0.95 0.6 1.18 0.3 0.22 0.6 1.08 0.6 1.92s0.5 1.7 1 1.91c1.3 0.53 1.3 0.54 2.4-0.62zm-20.9 0.56c1.3-0.21 1.8-0.7 2-2.35 0.2-1.14 0.2-2.16 0.1-2.26-0.4-0.5-3.4 1.48-3.4 2.24 0 0.48-0.3 0.88-0.6 0.88s-0.7 0.44-0.9 0.97c-0.2 0.56 0 0.94 0.4 0.88 0.4-0.05 1.5-0.21 2.4-0.36zm-43.4-0.52c0-0.59-0.3-0.98-0.6-0.85-0.4 0.13-0.7 0.51-0.7 0.85s0.3 0.73 0.7 0.86c0.3 0.12 0.6-0.26 0.6-0.86zm6.9-0.32c0-0.36-0.2-0.65-0.6-0.65-0.3 0-0.6 0.29-0.6 0.65s0.3 0.65 0.6 0.65c0.4 0 0.6-0.29 0.6-0.65zm80.4-0.69c0-0.38-0.3-0.51-0.7-0.29-0.3 0.22-0.6 0.53-0.6 0.69s0.3 0.29 0.6 0.29c0.4 0 0.7-0.31 0.7-0.69zm-6.9-0.34c0-1.15-1.4-0.95-1.8 0.25-0.1 0.43 0.2 0.78 0.8 0.78 0.5 0 1-0.47 1-1.03zm29.5-0.63c0.7-0.84 0.6-1.2-0.2-2.1-1-1.01-1.2-1.01-2.1 0-0.9 0.9-0.9 1.26-0.3 2.1 0.5 0.55 1.1 1.01 1.3 1.01 0.3 0 0.9-0.46 1.3-1.01zm-81.9 0.03c0.3-0.59 0.1-1.38-0.2-1.76-1-0.99-2.8-0.09-2.5 1.26 0.2 1.5 2.2 1.86 2.7 0.5zm-39.6 0.37c0.5-0.78-0.7-1.55-1.6-1.02-0.7 0.45-0.2 1.63 0.7 1.63 0.3 0 0.7-0.28 0.9-0.61zm16.7-1.35c0-0.36-0.5-0.65-1-0.65-0.6 0-0.8 0.29-0.6 0.65s0.6 0.65 1 0.65c0.3 0 0.6-0.29 0.6-0.65zm74.4-1.63c0.9-1.51 0.9-1.75 0-3.25-1.2-1.88-2.6-2.07-4.6-0.62-1.6 1.1-1.9 3.48-0.7 4.72 1.4 1.38 4.2 0.93 5.3-0.85zm-43.7 0.37c0-0.33-0.3-1.4-0.6-2.37l-0.7-1.77-1.5 1.51c-0.9 0.83-1.6 1.83-1.6 2.21 0 0.39 0.4 0.16 0.9-0.5 1-1.29 2.3-0.95 2.3 0.59 0 0.52 0.2 0.94 0.6 0.94 0.3 0 0.6-0.27 0.6-0.61zm-11.3-1.67c0-0.54-0.4-0.98-0.9-0.98s-1 0.44-1 0.98 0.5 0.98 1 0.98 0.9-0.44 0.9-0.98zm-4.4-0.29c1.7-1.78 1.8-5.25 0.1-5.25-1.9 0-3.3 1.87-3.1 4.11 0.2 2.48 1.3 2.89 3 1.14zm39.1 0.18c0.3-0.24 0.5-0.97 0.5-1.63 0-0.84-0.5-1.19-1.6-1.19-1.3 0-1.6 0.32-1.6 1.63 0 1.14 0.4 1.63 1.2 1.63 0.6 0 1.3-0.2 1.5-0.44zm-12.4-0.85c0.7-0.27 1.7-0.33 2.1-0.14 0.7 0.25 0.6-0.17-0.3-1.37-1.4-1.98-2-2.13-3.7-0.83-1.1 0.83-1.1 1.05-0.3 1.89 0.6 0.6 1.4 0.77 2.2 0.45zm18.5-1.39c1-1.8 0-2.74-2.1-2.18-2.3 0.61-2.4 3.55-0.1 3.55 0.9 0 1.8-0.54 2.2-1.37zm18.7-1.56c0.8-0.89 1.6-1.63 2-1.63 0.3 0 0.7-0.44 0.9-0.97 0.6-1.7-1.7-1.12-3.9 0.97-1.1 1.08-1.9 2.25-1.7 2.61 0.6 1.01 1.2 0.79 2.7-0.98zm-41.9 0.04c1-1.29 0.4-2.69-1.3-3.16-1.4-0.39-2.1 0.62-1.7 2.59 0.2 1.52 1.9 1.84 3 0.57zm-13.8 0.01c0-0.61-0.6-1.03-1.3-1.03-1.6 0-1.3 1.53 0.2 1.84 0.6 0.13 1.1-0.2 1.1-0.81zm45.5-1.01c1.6-1.86 1.6-10.87 0-10.56-0.9 0.17-1-0.13-0.6-1.84 0.4-1.95 0.3-2.04-1.4-1.84-1.4 0.17-1.8 0.58-2 2.01-0.1 1.28 0.1 1.79 0.8 1.79 1.2 0 1.3 0.9 0 1.95-1.8 1.56-0.8 9.78 1.2 9.78 0.5 0 1.4-0.58 2-1.29zm14.7-0.67c0-0.36-0.3-0.65-0.6-0.65s-0.6 0.29-0.6 0.65 0.3 0.65 0.6 0.65 0.6-0.29 0.6-0.65zm-21.6-1.94c0.8-1 1-1.54 0.4-2.08-0.8-0.9-4.1 1.07-3.7 2.27 0.4 1.31 2 1.22 3.3-0.19zm34.9 0.19c0.7-0.17 1.3-1.21 1.5-2.53 0.3-1.72 0.8-2.34 2.1-2.66 1.8-0.45 4.5-2.16 3.5-2.2-0.3-0.01-0.1-0.45 0.6-0.97 1-0.8 1.1-1.19 0.5-2.61-0.4-0.92-0.8-2.22-0.8-2.88 0-1.07 2.6-4.9 5.4-7.91 1-1.16 1.2-1.9 0.4-1.9-0.3 0-1.5 1.45-2.6 3.21-3 4.8-6.4 6.71-7.2 4.01-0.5-1.61-3.7-1.42-4 0.23-0.2 0.76-0.6 0.98-1.3 0.67-2.2-0.96-2.9-0.98-4.1-0.12-1.4 1.09-1 2.85 1.3 5.69l1.6 1.95h-1.6c-1.4 0-1.7 0.27-1.6 1.79 0.1 0.99 0 2.09-0.1 2.44-0.1 0.36 0.3 1.46 0.9 2.45 1.1 1.75 2.7 2.13 5.5 1.34zm-71.6-0.2c0-0.36-0.3-0.65-0.7-0.65-0.3 0-0.6 0.29-0.6 0.65s0.3 0.65 0.6 0.65c0.4 0 0.7-0.29 0.7-0.65zm55.5-1.58c1.5-1.14 0.8-2.98-1.2-2.98-1.8 0-2.4 0.74-1.9 2.17s1.9 1.77 3.1 0.81zm-38.2-1.43c1.1-1.63 1.1-1.75-0.1-2.64-1.1-0.83-1.4-0.77-2.3 0.48-0.6 0.77-1.1 1.96-1.1 2.63 0 1.85 2.3 1.54 3.5-0.47zm-7.9 0.21c0.8-0.45 1.6-1.47 1.7-2.27 0.2-1.15-0.1-1.45-1.3-1.45-1.8 0-3.7 2.04-3.2 3.49 0.5 1.28 0.7 1.3 2.8 0.23zm-9.6-0.51c1.1-0.43 1.4-1.08 1.4-2.85 0-2.21 0-2.26-1.6-1.53-1.6 0.78-2.7 3.48-1.8 4.41 0.3 0.29 1.2 0.28 2-0.03zm87.4-2.22c1.1-1.4 0.3-3.07-1.4-2.82-1.6 0.23-2.3 2.38-1 3.21 1.2 0.77 1.5 0.72 2.4-0.39zm-24.5-0.04c0.6-0.66 0.6-1.22 0.2-1.65-0.9-0.95-2.7 0-2.7 1.42 0 1.49 1.4 1.62 2.5 0.23zm-36.6 0c0.2-0.55 0.2-1.18 0-1.39-0.4-0.47-2.3 1-2.3 1.83 0 0.98 1.9 0.62 2.3-0.44zm-22.4 0.32c0-0.38-0.3-0.51-0.6-0.29s-0.6 0.53-0.6 0.69 0.3 0.29 0.6 0.29 0.6-0.31 0.6-0.69zm34-1.72c0.2-0.65 0.2-1.84 0-2.66-0.4-1.4-0.5-1.42-1.8-0.42-1 0.66-1.4 1.57-1.3 2.46 0.2 1.8 2.7 2.29 3.1 0.62zm12.1-0.63c0.7-0.75 0.4-1.52-0.6-1.52-0.5 0-0.9 0.44-0.9 0.97 0 1.02 0.7 1.3 1.5 0.55zm-42.8-0.37c0.6-0.45 1.4-1.66 1.7-2.68 0.4-1.02 1.3-2.01 1.9-2.19 1.8-0.48 1.8-3.45 0-3.45-2.1 0-4.5 1.95-4 3.39 0.2 0.72 0 1.74-0.5 2.36-0.6 0.62-0.8 1.59-0.6 2.25 0.4 0.97 0.6 1.02 1.5 0.32zm76.1-8.32c-0.2-0.36-0.6-0.65-1-0.65-0.3 0-0.4 0.29-0.2 0.65s0.6 0.65 1 0.65c0.3 0 0.4-0.29 0.2-0.65zm-79.7-1.26c0.4-0.72-0.6-1.49-1.2-0.89-0.6 0.62-0.4 1.5 0.2 1.5 0.4 0 0.8-0.27 1-0.61zm11-2c0-0.35-0.3-0.65-0.6-0.65-0.4 0-0.7 0.3-0.7 0.65 0 0.36 0.3 0.66 0.7 0.66 0.3 0 0.6-0.3 0.6-0.66zm53.6-1.64c0.9-1.4 0.9-1.69 0.1-2-1.3-0.55-3.5 0.9-3.5 2.36 0 1.86 2.2 1.63 3.4-0.36zm-60.4-0.64c0.4-0.9 0.5-1.84 0.3-2.09-0.7-0.75-2.6 0.8-2.8 2.32-0.3 1.99 1.6 1.82 2.5-0.23zm15-0.7c0.8-0.92 2.6-2.28 3.8-3.03 2.7-1.57 4.3-4.86 2.7-5.51-1.6-0.61-4.3 1.96-4.3 3.99 0 1.22-0.7 2.33-2.2 3.62-1.2 1.02-2.1 2.03-1.9 2.23 0.2 0.21 1.1-0.38 1.9-1.3zm-7.5-1.57c2.5-2.58 2.2-4.18-0.8-4.44-2.1-0.18-2.5 0.04-3.3 1.76-1.2 2.4-1.2 2.35 0 3.6 1.4 1.44 2 1.3 4.1-0.92zm-42.8-1.96c0-0.36-0.2-0.65-0.6-0.65-0.3 0-0.6 0.29-0.6 0.65s0.3 0.65 0.6 0.65c0.4 0 0.6-0.29 0.6-0.65zm87.3-1.3c0.8-0.54 0.8-0.64-0.2-0.65-0.6 0-1.1 0.29-1.1 0.65 0 0.79 0.1 0.79 1.3 0zm-19.7-2.31c0.2-0.56 0.2-1.17 0-1.37-0.5-0.57-1.7 0.4-1.7 1.43 0 1.25 1.2 1.21 1.7-0.06zm-52.2-0.67c1.1-1.14 1.3-2.62 0.4-3.17-1-0.63-3.5 1.93-3 3.11 0.5 1.36 1.3 1.37 2.6 0.06zm30.7-5.21c0.3-0.72 0.1-0.97-0.7-0.82-0.5 0.12-1.1 0.58-1.3 1.03-0.3 1.19 1.6 0.99 2-0.21zm-28.5-0.24c1-0.69 0.4-2.65-0.9-2.65s-1.9 1.31-0.9 2.32c0.6 0.56 1.2 0.68 1.8 0.33zm83.5-1.06c0-0.56-0.3-0.83-0.6-0.61-0.4 0.22-0.7 0.68-0.7 1.01 0 0.34 0.3 0.62 0.7 0.62 0.3 0 0.6-0.46 0.6-1.02zm-39-2.43c1-1.34 0.7-3.25-0.4-2.49-0.5 0.3-0.8 1.22-0.7 2.05 0.2 1.34 0.3 1.39 1.1 0.44zm6.2-0.59c1-0.97 1-2.48 0.1-2.48-1.3 0-3.1 1.36-3.1 2.31 0 1.15 2 1.26 3 0.17zm-20.2-3.78c0.5-0.88-0.2-1.96-1.3-1.96-0.5 0-0.9 0.59-0.9 1.31 0 1.35 1.5 1.8 2.2 0.65zm19.1-0.98c0-0.54-0.3-0.98-0.6-0.98-0.4 0-0.7 0.44-0.7 0.98s0.3 0.98 0.7 0.98c0.3 0 0.6-0.44 0.6-0.98zm-67.5-1.02c2.1-4.11 0-7.46-2.9-4.74s-2.7 6.74 0.4 6.74c1.1 0 1.9-0.6 2.5-2zm106.6-0.5c1.8-2.05 1.3-2.8-1.1-1.6-1.2 0.59-2.2 1.47-2.2 1.94 0 1.26 2.1 1.04 3.3-0.34zm4.2-1.14c-0.1-0.76-0.2-0.91-0.4-0.39-0.2 0.47-0.2 1.03 0 1.25 0.2 0.21 0.4-0.17 0.4-0.86zm-32.6-4.18c0-0.36-0.3-0.65-0.7-0.65-0.3 0-0.6 0.29-0.6 0.65s0.3 0.65 0.6 0.65c0.4 0 0.7-0.29 0.7-0.65zm-30.2-10.8c0-0.57-0.3-0.92-0.7-0.78-1.2 0.41-1.4 1.81-0.2 1.81 0.5 0 0.9-0.46 0.9-1.03z" />
      <path
         id="path3418"
         style="fill:#b22222;fill-opacity:1"
         inkscape:connector-curvature="0"
         d="m916.86 8.86c0.2 0.21-0.1 0.39-0.5 0.39-0.5 0-0.8-0.18-0.8-0.39 0-0.22 0.2-0.39 0.5-0.39 0.2 0 0.6 0.17 0.8 0.39zm-14.8 5.65c-0.2 0.34-0.6 0.62-0.9 0.62-0.7 0-0.2-0.89 0.6-1.09 0.3-0.09 0.5 0.08 0.3 0.47zm15.3 3.75c-0.2 0.22-0.4 0.39-0.5 0.39-0.2 0-0.3-0.17-0.3-0.39s0.3-0.39 0.6-0.39 0.4 0.17 0.2 0.39zm1.6 3.13c0.2 0.22 0.1 0.4-0.2 0.4s-0.6-0.18-0.6-0.4c0-0.21 0.1-0.39 0.2-0.39 0.2 0 0.4 0.18 0.6 0.39zm-8.2 1.92c0 0.21-0.2 0.5-0.5 0.63s-0.5 0.07-0.5-0.15c0-0.21 0.2-0.5 0.5-0.63 0.3-0.14 0.5-0.07 0.5 0.15zm5.6 3.96c0.1 0.22-0.1 0.39-0.6 0.39-0.4 0-0.7-0.17-0.5-0.39s0.4-0.39 0.5-0.39 0.4 0.17 0.6 0.39zm-9.4 1.65c1 0.69 0.8 1.48-0.3 1.48-1.3 0-3-0.97-2.5-1.5 0.5-0.59 2-0.58 2.8 0.02zm-4.5 0.55c0.2 0.15 0.4 0.55 0.4 0.88 0 0.44-0.2 0.49-0.6 0.17-0.3-0.24-0.5-0.64-0.4-0.89s0.4-0.32 0.6-0.16zm19.6 4.33c0.9 0.7 0.3 1.31-1.1 1.06-2.1-0.37-2.5-0.59-1.7-0.97 0.9-0.41 2.3-0.45 2.8-0.09zm-75.9 1.3c-0.9 0.39-1.8-0.83 0 0zm77.5 1.05c0.6 0.47 0.3 1.7-0.4 1.7-0.4 0-1.1-0.44-1.6-0.98-0.9-0.95-0.8-0.98 0.4-0.98 0.6 0 1.4 0.12 1.6 0.26zm-71.2 2.13c0.6 0.64 0.6 1.05 0.2 1.76-1.1 1.78-4.3 1.68-4.9-0.14-0.7-1.98 3.1-3.28 4.7-1.62zm55.9 7.99c-0.2 0.32-0.5 0.48-0.8 0.36-0.6-0.25-0.1-0.95 0.6-0.95 0.3 0 0.3 0.27 0.2 0.59zm-46.4 3.33c-0.2 0.22-0.4 0.39-0.5 0.39-0.2 0-0.3-0.17-0.3-0.39s0.3-0.39 0.6-0.39 0.4 0.17 0.2 0.39zm-1.7 1.05c-0.4 0.11-0.9 0.1-1-0.03-0.2-0.13 0.1-0.22 0.7-0.21 0.6 0.02 0.7 0.12 0.3 0.24zm12.3 0.52c-0.2 0.21-0.7 0.39-1.1 0.39s-0.8-0.18-0.8-0.39c0-0.22 0.5-0.4 1.1-0.4s1 0.18 0.8 0.4zm-21.7 0.39c-0.1 0.21-0.5 0.39-0.8 0.39-0.2 0-0.5-0.18-0.5-0.39 0-0.22 0.4-0.39 0.9-0.39 0.4 0 0.6 0.17 0.4 0.39zm12.1 0.24c0.8 0.65 0.3 1.66-1.2 2.04-1.9 0.49-3.3-0.33-2.3-1.43 0.6-0.69 2.8-1.08 3.5-0.61zm-14.2 4.32c0.4 0.85 0 1.2-1.4 1.12-1.5-0.08-1.6-0.99-0.1-1.4 0.9-0.23 1.3-0.15 1.5 0.28zm3.9 0.21c-0.4 0.73-1.5 0.85-1.5 0.16 0-0.34 0.4-0.62 0.8-0.62 0.5 0 0.8 0.21 0.7 0.46zm12.8 0.32c0 0.22-0.4 0.39-0.8 0.39-0.5 0-0.8-0.17-0.8-0.39 0-0.21 0.3-0.39 0.8-0.39 0.4 0 0.8 0.18 0.8 0.39zm29.1 2.01c0.9 0.39 1.4 3.08 0.5 3.08-0.8 0-2.2-1.42-2.2-2.26 0-1.04 0.5-1.3 1.7-0.82zm-22.4 0.61c-0.5 0.37-1.1 0.55-1.2 0.42-0.6-0.39 0.2-1.08 1.2-1.08 0.8 0 0.8 0.05 0 0.66zm-15.7 0.81c0 1.19-1.6 1.16-3.5-0.08l-1.5-0.96 2.5 0.08c2.2 0.07 2.5 0.18 2.5 0.96zm13.7 0.1c0 0.21-0.2 0.39-0.5 0.39s-0.6-0.18-0.6-0.39c0-0.22 0.3-0.4 0.6-0.4s0.5 0.18 0.5 0.4zm-6.9 0c0 0.21-0.2 0.39-0.5 0.39s-0.5-0.18-0.5-0.39c0-0.22 0.2-0.4 0.5-0.4s0.5 0.18 0.5 0.4zm18.3 2.19c0.4 0.78-0.8 1.43-1.7 0.89-0.8-0.49-0.4-1.52 0.7-1.52 0.4 0 0.9 0.29 1 0.63zm-24.9 0.5c0.6 0.72-1.7 2.25-2.5 1.66-0.4-0.32-0.3-0.44 0.3-0.44 0.4 0 1-0.38 1.3-0.85 0.4-0.63 0.6-0.73 0.9-0.37zm-8.7 0.19c0.4 0.41 0.4 0.64-0.1 0.95-5.8 2.78-4.6-2.84 0.1-0.95zm46.2 0.64c0.2 0.22 0 0.39-0.5 0.39-0.4 0-0.8-0.17-0.8-0.39 0-0.21 0.2-0.39 0.5-0.39s0.6 0.18 0.8 0.39zm-22.4 0c0 0.22-0.3 0.39-0.5 0.39-0.3 0-0.6-0.17-0.6-0.39 0-0.21 0.3-0.39 0.6-0.39 0.2 0 0.5 0.18 0.5 0.39zm-9.1 0.47c0.4 0.26 0.6 0.78 0.6 1.15 0 0.38 0.3 0.8 0.6 0.93 0.9 0.42 0.5 1.37-0.6 1.37-0.5 0-1-0.25-1-0.55 0-0.42-0.4-0.48-1.5-0.25-0.8 0.18-1.3 0.52-1.2 0.84 0.1 0.3 0.3 0.86 0.4 1.23 0.2 0.44 0 0.69-0.5 0.69s-1.1 0.22-1.5 0.49c-1.5 1.05-3.7 1.91-4.5 1.71-1.2-0.35-0.8-1.38 0.6-1.65 1.4-0.26 1.6-0.56 0.8-1.16-0.8-0.67-0.9-2.32 0-2.36 1.9-0.11 2.1-0.21 2.1-0.93 0-1.53 4.2-2.64 5.7-1.51zm-1.2 3.45c0.2 0.22 0.1 0.39-0.2 0.39s-0.6-0.17-0.6-0.39 0.1-0.39 0.2-0.39c0.2 0 0.4 0.17 0.6 0.39zm-13.9 1.05c-0.4 0.11-0.8 0.1-1-0.03s0.1-0.22 0.7-0.21c0.6 0.02 0.7 0.12 0.3 0.24zm3.9 0.91c-0.2 0.21-0.5 0.39-0.6 0.39s-0.2-0.18-0.2-0.39c0-0.22 0.2-0.39 0.5-0.39 0.4 0 0.5 0.17 0.3 0.39zm56.4 1.14c0.4 0.53-0.3 1.6-1 1.6-1 0-2-1.05-1.6-1.55s2.2-0.54 2.6-0.05zm-16.6 1.6c0 0.22-0.4 0.39-0.8 0.39-0.5 0-0.7-0.17-0.5-0.39 0.2-0.21 0.5-0.39 0.8-0.39s0.5 0.18 0.5 0.39zm-34.3 0c1.4 1.65-0.6 1.54 0 0zm12.1 2.35c0 0.22-0.4 0.39-1 0.39s-1-0.17-0.8-0.39c0.2-0.21 0.7-0.39 1.1-0.39s0.7 0.18 0.7 0.39zm-5.5 0.39c-0.2 0.22-0.4 0.39-0.6 0.39-0.1 0-0.2-0.17-0.2-0.39 0-0.21 0.3-0.39 0.6-0.39s0.4 0.18 0.2 0.39zm11.6 0.79c-0.2 0.22-0.5 0.3-0.8 0.18-0.7-0.34-0.6-0.58 0.3-0.58 0.5 0 0.7 0.18 0.5 0.4zm-11.5 0.65c1 0.27 0.9 0.78-0.2 1.08-0.9 0.26-1.9-0.46-1.4-1.03 0.3-0.34 0.6-0.35 1.6-0.05zm24.2 2.09c0.2 0.21 0 0.39-0.3 0.39s-0.5-0.18-0.5-0.39c0-0.22 0.1-0.39 0.2-0.39s0.4 0.17 0.6 0.39zm-22.7 2.35c0.2 0.21-0.1 0.39-0.5 0.39-0.5 0-0.8-0.18-0.8-0.39 0-0.22 0.2-0.39 0.5-0.39 0.2 0 0.6 0.17 0.8 0.39zm12.1 0.54c-0.8 0.3-2.2 0.65-2.9 0.78-1 0.19-1 0.13 0.3-0.3 0.9-0.29 2.2-0.64 2.9-0.77 1-0.2 1-0.14-0.3 0.29zm-15.5-0.15c-2.4 1.62-2.6-0.26 0 0zm10.6 1.44c-0.4 0.12-0.8 0.1-1-0.03s0.1-0.22 0.7-0.2 0.7 0.11 0.3 0.23zm-2.1 0.4c-0.4 0.11-0.8 0.09-1-0.04s0.1-0.22 0.7-0.2 0.7 0.11 0.3 0.24zm45.8 11.24c0 0.09-0.4 0.26-0.8 0.38-0.4 0.13-0.8 0.06-0.8-0.15s0.4-0.38 0.8-0.38 0.8 0.07 0.8 0.15zm-40.1 1.25c0 0.36-0.4 0.56-0.9 0.49-1.3-0.19-1.5-1.11-0.2-1.11 0.7 0 1.1 0.25 1.1 0.62zm35.2 0.82c0.9 0.27 0.8 1.3-0.1 1.3-0.5 0-0.8-0.34-0.8-0.78 0-0.43 0-0.77 0.1-0.75 0.1 0.01 0.5 0.12 0.8 0.23zm-30.8 2.34c0.5 0.36-0.1 0.92-1 0.92-0.4 0-0.8-0.26-0.8-0.58 0-0.59 1.2-0.81 1.8-0.34zm18.4 1.78c-0.5 0.37-0.8 0.37-1.3 0-0.5-0.36-0.3-0.47 0.7-0.47 0.9 0 1.1 0.11 0.6 0.47zm-14.7 7.59c0.4 0.79-0.5 2.13-1.5 2.13-1.1 0-1.4-0.6-1-1.75 0.4-1.11 2-1.36 2.5-0.38zm6.7-0.16c0 0.08 0.1 0.7 0.2 1.4 0.2 1.14 0.1 1.22-0.8 0.85-1.2-0.44-1.2-1.94-0.1-2.21 0.4-0.09 0.7-0.11 0.7-0.04zm32.6 2.46c0.5 0.44 0.4 0.76-0.5 1.55l-1.2 0.99-0.9-0.93c-0.6-0.51-0.9-1.21-0.7-1.55 0.4-0.77 2.5-0.81 3.3-0.06zm-20 1.01c0 0.21-0.4 0.39-1 0.39s-1.1-0.18-1.1-0.39c0-0.22 0.5-0.4 1.1-0.4s1 0.18 1 0.4zm1.5 1.2c-0.1 0.23-0.4 0.42-0.7 0.42s-0.6-0.19-0.7-0.42 0.2-0.42 0.7-0.42 0.8 0.19 0.7 0.42zm-5.9 0.83c0.2 0.26 0.1 0.53-0.2 0.62-0.4 0.08-0.6 0.8-0.6 1.6 0 1.27-0.2 1.51-1.8 1.94-1.5 0.43-1.8 0.4-2.5-0.31-1.2-1.06-0.7-2.35 1.1-2.82 0.8-0.21 1.6-0.63 1.8-0.94 0.3-0.68 1.7-0.73 2.2-0.09zm-30.4-0.05c0 0.23-0.2 0.3-0.5 0.17s-0.5-0.32-0.5-0.42c0-0.09 0.2-0.17 0.5-0.17s0.5 0.19 0.5 0.42zm52.8 1.75c0.5 0.49 0.5 0.69-0.4 1.15-0.8 0.47-1.1 0.47-1.7 0.02-0.8-0.62-0.4-1.77 0.7-1.77 0.4 0 1 0.27 1.4 0.6zm-12.7 0.87c0.3 0.59 0.6 1.16 0.6 1.27-0.1 0.29-2.7 0.28-2.7-0.02 0-0.13-0.7-0.47-1.5-0.75l-1.4-0.5 1.8-0.51c2.5-0.69 2.4-0.71 3.2 0.51zm-16.3 0.67c0 0.35-0.4 0.49-0.8 0.35-0.5-0.12-0.8-0.38-0.8-0.57 0-0.2 0.3-0.35 0.8-0.35 0.4 0 0.8 0.25 0.8 0.57zm-3.3 0.29c1 0.77 0.7 1.09-1 1.09-1.3 0-1.6-0.13-1.3-0.61 0.1-0.35 0.3-0.7 0.3-0.79 0-0.35 1.4-0.14 2 0.31zm-9 0c1.2 0.85 0.8 1.55-0.8 1.41-1.8-0.15-2.5-1.88-0.8-1.88 0.5 0 1.3 0.21 1.6 0.47zm-14.1 1.52c0.3 0.44 0.4 1.11 0.2 1.47s-0.3 1.02-0.3 1.47c0.2 0.99-0.7 1.56-2.8 1.87-2.9 0.14-4.9-2.68-1.6-3.66 1-0.24 1.9-0.77 2-1.2 0.4-1.01 1.8-0.98 2.5 0.05zm4.4 0.21c0.4 0.73-0.5 1.72-1.6 1.72-1 0-1.8-1.35-1.1-1.9 0.9-0.66 2.3-0.56 2.7 0.18zm42.5 0.47c0 0.86-1.1 1.34-2.4 0.99-1.3-0.37-0.6-1.49 1-1.63 1.1-0.1 1.4 0.04 1.4 0.64zm-40.1-0.3c0 0.23-0.2 0.31-0.5 0.17-0.3-0.13-0.5-0.32-0.5-0.41 0-0.1 0.2-0.17 0.5-0.17s0.5 0.18 0.5 0.41zm20.3 0.24c0.9 0.72 0.2 1.35-1.4 1.23-2.3-0.16-2.8-1.49-0.5-1.49 0.8 0 1.7 0.12 1.9 0.26zm5.1 1.33c0 0.23-0.3 0.3-0.6 0.17s-0.5-0.32-0.5-0.41c0-0.1 0.2-0.18 0.5-0.18s0.6 0.19 0.6 0.42zm2.1 0.37c0 0.21-0.3 0.39-0.6 0.39-0.2 0-0.5-0.18-0.5-0.39 0-0.22 0.3-0.39 0.5-0.39 0.3 0 0.6 0.17 0.6 0.39zm-56.7 26.39c0.5 0.16 0.7 0.5 0.5 0.99-0.2 0.42-0.1 0.87 0.2 1.01s0.6 0.43 0.6 0.64c0 0.22-0.2 0.29-0.5 0.17s-1 0.24-1.6 0.81-1.1 0.88-1.1 0.69-0.4-0.01-0.8 0.39c-0.4 0.43-1.1 0.64-1.5 0.5-0.9-0.25-1.2-1.43-0.3-1.43 0.3 0 0.5-0.18 0.5-0.39 0-0.68-1.5-0.42-2.7 0.45l-1.2 0.85-1.2-1.04c-0.6-0.57-1.4-1.04-1.7-1.04s-0.6-0.17-0.6-0.37c-4.7-13.16 16-8.78 11.4-2.23zm79.5-24.96c0.7 0.54 0.3 0.97-0.8 0.85-1.4-0.16-1.9-1.11-0.5-1.11 0.5 0 1.1 0.12 1.3 0.26zm-42 1.16c-0.2 0.77 0 1.08 0.7 1.22 2.1 0.39 1.8 2.43-0.3 2.45-1 0.01-1.9-1.11-1.7-1.95 0.3-0.58 0.1-0.79-0.6-0.79-0.6 0-1.2-0.2-1.4-0.45-0.5-0.55 1.2-1.51 2.6-1.51 0.8 0 0.9 0.21 0.7 1.03zm34.7 0.09c0.7 0.6 0.7 2.02 0 2.02-0.8 0-2.9-1.01-3.1-1.49-0.7-1.23 1.7-1.63 3.1-0.53zm-45.6-0.33c0 0.21-0.4 0.39-0.8 0.39s-0.8-0.18-0.8-0.39c0-0.22 0.4-0.39 0.8-0.39s0.8 0.17 0.8 0.39zm24.3 0.95c0 0.31-0.2 0.66-0.5 0.78-0.6 0.27-1.8-0.73-1.3-1.08 0.6-0.47 1.8-0.27 1.8 0.3zm-17.6 0.48c0.4 0.11 0.7 0.45 0.7 0.75 0 0.71-1.8 0.73-2.6 0.03-0.9-0.83 0.2-1.29 1.9-0.78zm-3.5 0.92c0 0.89-0.3 1.17-1 1.17-1.3 0-2.4-0.99-2-1.75 0.2-0.33 0.9-0.6 1.6-0.6 1.2 0 1.4 0.18 1.4 1.18zm18.4-0.12c1.1 0.32 1.6 0.93 1.6 1.98 0 0.71-0.3 0.88-1.5 0.88-1.7 0-2.6-0.62-2.8-1.99-0.2-0.98 1-1.36 2.7-0.87zm19.9 0.73c0.5 0.88-0.5 1.43-2.3 1.28-1.1-0.09-1.5-0.37-1.7-1.01-0.1-0.77 0.1-0.88 1.8-0.88 1.2 0 2 0.21 2.2 0.61zm-32.5-0.22c0 0.22-0.3 0.39-0.6 0.39-0.2 0-0.5-0.17-0.5-0.39s0.3-0.39 0.5-0.39c0.3 0 0.6 0.17 0.6 0.39zm-11.5-0.14c0.6 0.41-0.1 0.92-1.2 0.92-0.6 0-1-0.26-1-0.58 0-0.59 1.6-0.83 2.2-0.34zm2.4 1.99c1 0.28 0.7 0.89-0.4 0.89-0.6 0-1.1-0.16-1.1-0.37 0-0.5 0.7-0.73 1.5-0.52zm36 0.5c0 0.22-0.3 0.39-0.6 0.39s-0.4-0.17-0.2-0.39 0.4-0.39 0.5-0.39c0.2 0 0.3 0.17 0.3 0.39zm-1.9 0.87c1.1 1.23 1 1.48-0.7 1.48s-3-0.87-2.5-1.76c0.4-0.87 2.3-0.72 3.2 0.28zm-14.8-0.15c0.5 0.39 0.8 0.94 0.8 1.21s0.5 0.94 1.1 1.49c1.3 1.25 1.3 2.63 0.1 3.58-0.8 0.6-0.9 0.87-0.4 1.59 0.4 0.48 0.6 1.26 0.5 1.72-0.1 0.47-0.1 1.25-0.2 1.74 0 0.66-0.3 0.88-1.3 0.88-2.2 0-3.4 1.16-4.4 4.47-0.5 1.71-1.1 2.92-1.3 2.69s-0.1-1.1 0.3-1.93c1.9-3.89 1.5-5.77-1.1-5.53-0.6 0.06-1.1-0.05-1.1-0.25 0-0.19-0.3-0.49-0.7-0.67-0.6-0.27-0.6-0.47 0-1.13 0.6-0.71 0.5-0.84-0.6-1.16-0.7-0.2-1.5-0.76-1.7-1.24-0.5-1.25 1-2 3.9-1.84 2.3 0.14 2.7-0.07 1.4-0.86-1-0.61-1-1.56 0-1.56 0.4 0 1.1-0.25 1.5-0.55s1.1-0.61 1.7-0.68c1.5-0.22 1.6-1.12 0.1-1.12-1.4 0-2.8-0.86-2.1-1.31 0.6-0.51 2.6-0.25 3.5 0.46zm20.8 0.1c0.6 0.19 1.3 0.62 1.5 0.97 0.2 0.46 0.7 0.57 1.8 0.42 0.9-0.14 1.7-0.01 2.1 0.35 1 0.87 0.2 1.75-1.6 1.75-2.2 0-3.2-0.37-3.2-1.19 0-0.39-0.4-0.82-1-0.95-1-0.25-1.8-1.25-1.2-1.52 0.2-0.09 0.9-0.01 1.6 0.17zm-34.1 0.12c1.4 0.78 1.1 1-0.6 0.51-0.9-0.25-1.6-0.58-1.6-0.75 0-0.47 1.2-0.34 2.2 0.24zm0.7 1.89c1.2 1.31 1 1.76-1.1 2.05-2.1 0.28-3.4-0.23-3.4-1.32 0-1.67 3.1-2.17 4.5-0.73zm27 1.31c0.2 0.34 0 0.8-0.3 1.03-0.8 0.61-2.2 0.08-2.2-0.85 0-0.96 2-1.11 2.5-0.18zm-34.4 1.34c0.2 0.22 0.1 0.4-0.2 0.4s-0.6-0.18-0.6-0.4c0-0.21 0.1-0.39 0.3-0.39 0.1 0 0.3 0.18 0.5 0.39zm52.6 1.6c0.5 0.22 1.2 0.74 1.5 1.16 0.5 0.66 0.3 0.86-1.2 1.4-1.7 0.59-1.9 0.59-3.2-0.04-3.1-1.51-0.3-3.92 2.9-2.52zm-11.7-0.03c0 0.22-0.4 0.39-0.8 0.39-0.5 0-0.7-0.17-0.5-0.39 0.2-0.21 0.5-0.39 0.8-0.39s0.5 0.18 0.5 0.39zm-47.3 0.33c1 0.82 1.1 2.34 0.2 4.53-0.6 1.49-0.7 1.53-3.2 1.6-1.3 0.03-2.5-0.09-2.5-0.26 0-0.18 0.3-0.32 0.6-0.32 0.9 0 0.5-0.6-1.1-1.87-3.9-1.36 2.8-5.55 6-3.68zm51.9 0.53c1 0.7 0.8 1.49-0.3 1.49s-2.2-0.72-2.2-1.45c0-0.64 1.7-0.66 2.5-0.04zm-40.2 0.4c0.7 0.78 0.7 0.9 0 1.2-2.1 0.85-4.8-0.81-2.8-1.72 1.1-0.54 1.9-0.4 2.8 0.52zm3.9 0.69c0 0.21-0.3 0.28-0.8 0.15-0.4-0.12-0.7-0.29-0.7-0.38 0-0.08 0.3-0.15 0.7-0.15 0.5 0 0.8 0.17 0.8 0.38zm-4.6 2.71c1.3 1.55 1.2 1.68-0.7 1.54-2.3-0.17-3.2-1.27-1.8-2.06s1.5-0.78 2.5 0.52zm-5.7-0.87c0.7 0.54 0.3 1.3-0.7 1.3-0.7 0-1.1-0.26-1.1-0.78 0-0.75 1-1.06 1.8-0.52zm38 0.74c0.2 0.46 0 0.59-0.9 0.49-0.6-0.07-1.2-0.34-1.3-0.61-0.3-0.73 1.8-0.6 2.2 0.12zm-88.1 0.57c0.2 0.24 0.7 0.34 1.2 0.23 2.5-0.74 5.2 2.28 3.7 4.27-0.4 0.43-0.6 1.05-0.6 1.37 0 0.36-0.5 0.59-1.4 0.59s-1.2 0.18-1.1 0.69c0.2 1.14-1.5 1.31-2.7 0.25-0.7-0.63-0.9-0.71-0.7-0.26 0.4 0.85-1.6 1.76-2.5 1.13-0.3-0.28-0.3-0.59 0.2-1.02 0.5-0.48 0.5-0.84 0.1-1.61-0.8-1.23-0.8-1.79 0-3.17 0.3-0.61 0.6-1.46 0.6-1.89 0.1-0.88 2.6-1.34 3.2-0.58zm79.3 1.41 1.4 1.03-1.3 0.53c-2.5 1.02-4.2 0.31-4.2-1.77 0-1.19 2.4-1.06 4.1 0.21zm-35.7 0.74c0.3 0.33 0.5 0.69 0.4 0.8-0.2 0.11-0.6-0.08-1-0.41-0.3-0.33-0.5-0.69-0.4-0.8 0.2-0.11 0.6 0.08 1 0.41zm17.3 0.28c0.3 0.26 1.1 0.48 1.7 0.49 0.7 0.01 1.3 0.25 1.4 0.54 0.2 0.43-0.2 0.48-2 0.25-2.5-0.3-3.8-0.85-3.4-1.41 0.4-0.49 1.5-0.43 2.3 0.13zm25.7 0.33c0.2 0.23 0.2 0.52 0 0.64-0.4 0.32-1.9-0.18-1.9-0.65 0-0.53 1.4-0.52 1.9 0.01zm5.4 0.84c0.8 0.62 0.8 1.49-0.1 1.49-1 0-3-1.19-2.7-1.6 0.4-0.51 2-0.45 2.8 0.11zm-55.8 0.51c0 0.32-0.3 0.58-0.6 0.58-0.2 0-0.5-0.26-0.5-0.58 0-0.33 0.3-0.59 0.5-0.59 0.3 0 0.6 0.26 0.6 0.59zm35.9 1.65c-1.4 1.47-2.6 2.18-1.7 1.03 0.3-0.4 1-1.08 1.7-1.51l1.2-0.78-1.2 1.26zm-11.5-0.48c0.2 0.33 0.1 0.59-0.1 0.59-0.3 0-0.6-0.26-0.8-0.59-0.1-0.32-0.1-0.59 0.2-0.59 0.2 0 0.6 0.27 0.7 0.59zm-2.4 0.21c2.3 0.68 0.8 2.29-1.6 1.72-0.9-0.21-1-0.11-0.7 0.68 0.2 0.5 0.9 1.4 1.4 1.98 1.3 1.34 1.3 1.48-0.1 1.48h-1.1l1.1 1.03c1.3 1.19 1.1 1.72-0.7 1.72-1.7 0-2.8-1.37-1.5-1.9 0.8-0.31 0.7-0.45-0.7-0.98-1.7-0.64-3-2.45-2.7-3.62 0.1-0.37 1-0.89 2-1.13 0.9-0.25 1.9-0.67 2-0.92 0.2-0.54 0.9-0.55 2.6-0.06zm29.2 0.59c0.7 0.67 0.7 0.64-1.3 1.28-1.6 0.53-3.5 0.06-3.5-0.88 0-0.72 1.1-0.98 2.2-0.54 0.6 0.22 1 0.2 1-0.06 0-0.59 0.8-0.49 1.6 0.2zm-40.9 0.82c0.9 0.74 0.5 1.25-1.3 1.41-1.6 0.14-2.8-1.1-1.6-1.66 1.1-0.54 1.9-0.47 2.9 0.25zm-36 1.58c0.2 0.15 0.4 0.5 0.4 0.79 0 0.8-1.5 0.61-2.2-0.27-0.4-0.65-0.4-0.78 0.5-0.78 0.5 0 1.1 0.12 1.3 0.26zm74.5 0.52c0.1 0.22 0 0.4-0.3 0.4s-0.5-0.18-0.5-0.4c0-0.21 0.1-0.39 0.2-0.39s0.4 0.18 0.6 0.39zm-35.4 0.16c0.8 0.43 0.9 0.69 0.5 1.03-1 0.72-3.1 0.31-3.1-0.59 0-0.98 1.3-1.19 2.6-0.44zm-47.7 0.43c0 0.36-0.3 0.59-0.6 0.51-0.3-0.07-0.5-0.3-0.5-0.51 0-0.2 0.2-0.43 0.5-0.51s0.6 0.15 0.6 0.51zm60.1 0.18c0.4 0.21 0.5 0.53 0.2 0.94-0.4 0.55-0.5 0.54-1.1-0.13-0.7-0.84-0.2-1.31 0.9-0.81zm-47.5 1.06c-0.3 0.99-1.5 1.12-1.5 0.17 0-0.49 0.3-0.82 0.8-0.82s0.8 0.27 0.7 0.65zm-7.9 0.56c3.1 2.09 1.1 4.7-2.1 2.77-1-0.63-1.1-0.86-0.6-1.35 0.5-0.41 0.5-0.68 0.1-0.86-0.3-0.14-0.5-0.49-0.5-0.77 0-1.02 1.4-0.92 3.1 0.21zm35.1-0.04c0.2 0.22 0 0.4-0.5 0.4-0.4 0-0.8-0.18-0.8-0.4 0-0.21 0.2-0.39 0.5-0.39s0.6 0.18 0.8 0.39zm23 0.79c0 0.21-0.4 0.39-0.8 0.39-0.5 0-0.8-0.18-0.8-0.39 0-0.22 0.3-0.39 0.8-0.39 0.4 0 0.8 0.17 0.8 0.39zm-11.7 0.76c1 1.33 0.7 2.1-0.6 1.84-0.7-0.13-1.3-0.24-1.5-0.25-0.6 0-1-1.13-0.7-1.76 0.5-0.84 2.2-0.73 2.8 0.17zm13.7 1.22c1.5 0.91 1.4 1.4-0.2 1.72-1.6 0.28-4.1-0.71-3.8-1.45 0.4-0.85 2.7-1.01 4-0.27zm-24.7 0.18c0.7 1.04 0.3 1.76-1 1.76-1.2 0-2.4-0.99-2-1.71 0.5-0.99 2.3-1.02 3-0.05zm30.2-0.33c0.2 0.14 0.4 0.44 0.4 0.66 0 0.25-0.3 0.22-0.7-0.06-0.3-0.25-0.5-0.55-0.3-0.66 0.1-0.11 0.4-0.09 0.6 0.06zm-24.7 1.69c0.2 0.22-0.2 0.4-0.8 0.4s-0.9-0.18-0.8-0.4c0.2-0.21 0.6-0.39 0.8-0.39 0.3 0 0.6 0.18 0.8 0.39zm-23.5 0.14c0.3 0.29 0.4 0.63 0.3 0.75-0.6 0.38-1.8-0.14-1.8-0.73 0-0.69 0.7-0.7 1.5-0.02zm26.2 0.81c0.2 0.3 0.9 0.65 1.5 0.78 1.4 0.25 2.1 1.32 1.6 2.3-0.5 0.95-2.8 1.21-4 0.44-1.1-0.72-1.4-2.51-0.4-2.51 0.3 0 0.4-0.33 0.2-0.78-0.4-0.89 0.7-1.11 1.1-0.23zm13.3 0.94c2.7 1.25 2.8 1.88 0.5 2.24-0.9 0.15-2 0.43-2.3 0.63-0.4 0.23-0.9 0.01-1.5-0.62-0.9-1.04-1-1.74-0.5-2.73 0.4-0.84 1.1-0.75 3.8 0.48zm14.2 0.5c2.2 1.14 3.3 2.61 2.5 3.47-0.6 0.73-2.8 0.44-4.4-0.59-1.3-0.81-1.6-1.26-1.5-2.41 0.1-0.78 0.4-1.47 0.6-1.53 0.3-0.06 1.6 0.42 2.8 1.06zm-6.4-0.04c2.3 0.67 2.2 2.88-0.1 3.31s-4.3-0.92-3.5-2.42c0.6-1.25 1.6-1.5 3.6-0.89zm-54.9 1.21c0.2 0.23 0.2 0.51 0.1 0.63-0.5 0.32-1.9-0.18-1.9-0.65 0-0.53 1.4-0.52 1.8 0.02zm-6.9 0.99c1.2 0.87 1 1.33-0.5 1.33-0.7 0-1.3-0.07-1.3-0.16s-0.1-0.42-0.3-0.74c-0.4-0.81 1.2-1.14 2.1-0.43zm4 0.35c0 0.32-0.2 0.59-0.5 0.59s-0.6-0.27-0.6-0.59 0.3-0.59 0.6-0.59 0.5 0.27 0.5 0.59zm10.8 0.43c0.5 0.42 0.7 0.79 0.4 1.03-0.8 0.56-2.9-0.05-2.7-0.77 0.3-0.91 1.3-1.02 2.3-0.26zm-6.6-0.01c0 0.35-0.3 0.56-0.6 0.47-1-0.24-1.2-1.09-0.2-1.09 0.4 0 0.8 0.28 0.8 0.62zm30.6 0.05c1.4 0.16 3.5 2.12 2.8 2.61-0.2 0.14-1.5 0.25-2.8 0.25-2.1 0-2.6-0.15-2.9-0.76-0.3-0.7 0.7-2.45 1.3-2.31 0.2 0.03 0.9 0.12 1.6 0.21zm-5.1 0.31c-0.1 0.32-0.5 0.49-0.8 0.37-0.5-0.26-0.1-0.95 0.6-0.95 0.3 0 0.4 0.26 0.2 0.58zm-6.5 0.61c0 0.23-0.2 0.31-0.5 0.18-0.3-0.14-0.6-0.32-0.6-0.42 0-0.09 0.3-0.17 0.6-0.17s0.5 0.19 0.5 0.41zm-14.8 0.49c1.5 0.54 2.1 1.45 1 1.45-0.9 0-2.9-1.45-2.5-1.75 0.1-0.09 0.8 0.04 1.5 0.3zm5.8 0.28c1.1 0.15 1.6 0.31 1.2 0.34-0.3 0.02-0.6 0.3-0.6 0.61 0 0.66-0.6 0.95-2.6 1.38l-1.5 0.31 0.6-1.52c0.3-0.83 0.6-1.49 0.8-1.47 0.2 0.03 1.1 0.19 2.1 0.35zm11.9 0.41c0.6 0.69-0.1 0.83-0.8 0.18-0.4-0.37-0.4-0.59-0.1-0.59s0.7 0.18 0.9 0.41zm19.3 0.37c0 0.21-0.4 0.39-0.8 0.39-0.5 0-0.8-0.18-0.8-0.39 0-0.22 0.3-0.39 0.8-0.39 0.4 0 0.8 0.17 0.8 0.39zm-5.7 0.27c0.8 0.52 0.4 1.66-0.4 1.44-0.9-0.25-1.1-1.15-0.3-1.48 0.2-0.12 0.6-0.1 0.7 0.04zm-31.3 0.62c0.5 0.27 0.9 0.75 1 1.07s0.3 0.85 0.4 1.17c0.4 0.96-2.7 3.42-4.1 3.3-0.7-0.05-1.6-0.11-2.2-0.13-1.3-0.05-2.1-1.67-1.7-3.29 0.3-1.05 0.8-1.51 2.1-1.99 2.1-0.74 3.5-0.78 4.5-0.13zm41.2 0.53c0 0.52-0.2 0.55-0.8 0.15-0.4-0.27-0.8-0.56-0.8-0.64s0.4-0.15 0.8-0.15 0.8 0.29 0.8 0.64zm-16.6-0.22c0.5 0.58-0.1 0.9-1.1 0.61-0.5-0.13-0.7-0.42-0.5-0.63 0.4-0.52 1.1-0.51 1.6 0.02zm-13.6 0.46c-0.4 0.27-1.2 0.75-1.7 1.07-0.8 0.42-0.7 0.29 0.2-0.49 0.7-0.59 1.5-1.07 1.7-1.07 0.3 0 0.2 0.22-0.2 0.49zm-20.5 0.3c0 0.43-0.2 0.78-0.5 0.78-0.2 0-0.7-0.35-1-0.78-0.5-0.67-0.4-0.79 0.5-0.79 0.7 0 1 0.26 1 0.79zm-3.1-0.03c0 0.21-0.3 0.48-0.6 0.62-0.2 0.13-0.5-0.04-0.5-0.37 0-0.34 0.3-0.61 0.5-0.61 0.3 0 0.6 0.16 0.6 0.36zm-4.2 0.11c0 0.26 0.7 1.04 1.6 1.73 2.3 1.79 1.3 3.32-1.9 2.74-1.3-0.26-2.4-1.92-2.4-3.83 0-0.93 0.2-1.11 1.3-1.11 0.8 0 1.4 0.21 1.4 0.47zm53.8 0.7c0 0.59-0.3 0.8-1 0.71-0.5-0.07-0.9-0.39-0.9-0.71s0.4-0.64 0.9-0.71c0.7-0.09 1 0.12 1 0.71zm-32.1 0.27c-0.4 0.11-0.9 0.1-1-0.03-0.2-0.13 0.1-0.23 0.7-0.21s0.7 0.11 0.3 0.24zm2.8 0.55c0.2 0.23 0.1 0.62-0.2 0.86-0.5 0.32-0.6 0.21-0.6-0.43 0-0.94 0.3-1.09 0.8-0.43zm70.4 0.38c0 0.23-0.2 0.31-0.5 0.17-0.3-0.13-0.6-0.32-0.6-0.41 0-0.1 0.3-0.18 0.6-0.18s0.5 0.19 0.5 0.42zm-66.2 0.54c0.8 0.42 0.9 0.67 0.5 1.01-1 0.74-3.1 0.3-3.3-0.69-0.2-1.05 1.2-1.21 2.8-0.32zm-5.5-0.25c0 0.18-0.4 0.66-0.8 1.08-0.6 0.6-0.9 0.66-1.4 0.29-0.5-0.38-0.5-0.6 0-1.08 0.7-0.64 2.2-0.83 2.2-0.29zm56.4 0.88c0 0.23-0.2 0.31-0.5 0.18-0.3-0.14-0.5-0.32-0.5-0.42 0-0.09 0.2-0.17 0.5-0.17s0.5 0.19 0.5 0.41zm-12.1 0.6c0.9 0.76-0.1 1.32-2.2 1.33s-2.3-1.02-0.4-1.53c2-0.51 1.8-0.53 2.6 0.2zm-70 0.62c0.5 0.2 0.9 0.72 0.9 1.16 0 1.15-2.9 0.88-3.1-0.29-0.2-0.97 0.9-1.4 2.2-0.87zm31.5 0.46c0.8 0.31 1.3 0.81 1.3 1.45 0 0.85-0.3 0.98-2.1 1.08-2 0.11-2.1 0.06-2.2-1.07-0.2-1.51 1.1-2.14 3-1.46zm-9.9 0.48c0.5 0.88 0.5 0.96-0.4 0.96-1.1 0-1.4-0.63-0.6-1.15 0.6-0.34 0.8-0.3 1 0.19zm-18 0.72c1.4 0.76 1.2 1.07-0.4 0.56-0.7-0.25-1.3-0.6-1.3-0.78 0-0.47 0.7-0.39 1.7 0.22zm7.3 0.43c0.4 0.33 0.5 1 0.3 1.55-0.3 0.84 0.1 1.16 2.8 2.51 1.6 0.85 3.6 1.55 4.3 1.56 1.1 0.01 3.4 0.23 4.2 0.4 0.1 0.03-0.3 0.42-1 0.86-0.7 0.5-1.5 0.72-2.1 0.57-1.7-0.38-8.2-3.72-8.2-4.16 0-0.22-0.9-0.9-1.8-1.5-1.3-0.74-1.7-1.29-1.5-1.73 0.4-0.81 2.1-0.84 3-0.06zm58.5 0.2c0 0.21-0.3 0.39-0.7 0.39-0.5 0-0.8-0.18-0.8-0.39 0-0.22 0.3-0.39 0.8-0.39 0.4 0 0.7 0.17 0.7 0.39zm-46.7 0.26c0.2 0.14 0.3 0.49 0.3 0.78 0 0.59-1.3 0.72-1.8 0.18-0.3-0.43 1-1.31 1.5-0.96zm-25 0.13c0 0.21-0.2 0.39-0.6 0.39-0.3 0-0.4-0.18-0.2-0.39 0.2-0.22 0.4-0.39 0.6-0.39 0.1 0 0.2 0.17 0.2 0.39zm82 0.39c0.2 0.22 0 0.39-0.5 0.39s-0.7-0.17-0.5-0.39c0.2-0.21 0.4-0.39 0.5-0.39s0.4 0.18 0.5 0.39zm-17.8 0.28c1.2 0.16 1.7 0.9 0.7 0.9-0.2 0-0.5 0.37-0.7 0.83-0.2 0.67-0.6 0.78-1.7 0.58-0.9-0.17-1.3-0.09-1.3 0.24 0 0.37-0.1 0.36-0.5-0.04-0.2-0.3-0.4-0.83-0.3-1.18s0.2-0.85 0.2-1.12c0.1-0.48 1.3-0.55 3.6-0.21zm-34.9 0.5c0.2 0.22-0.1 0.4-0.5 0.4-0.5 0-0.8-0.18-0.6-0.4 0.2-0.21 0.4-0.39 0.6-0.39 0.1 0 0.3 0.18 0.5 0.39zm-21.8 0.9c1.4 0.45 2.5 1.05 2.5 1.33 0 0.62-0.3 0.64-1.6 0.11-0.8-0.32-1-0.28-1 0.18 0 0.32-0.4 0.75-0.9 0.96s-0.8 0.51-0.6 0.66 0.2 0.61-0.1 1.01c-0.5 0.59-0.8 0.66-1.6 0.33-1.1-0.44-1.3-2.34-0.2-2.34 0.4 0 0.6-0.54 0.5-1.57-0.3-1.78-0.3-1.77 3-0.67zm29.7-0.09c0.2 0.23 0.2 0.52 0.1 0.64-0.5 0.32-2-0.18-2-0.65 0-0.53 1.5-0.52 1.9 0.01zm-13 0.76c0 1.41-0.4 1.47-1.8 0.29l-1-0.88-0.2 0.88c-0.2 1.04-0.6 1.1-2 0.3-1-0.58-1-0.59 0-1.18 0.6-0.32 1.9-0.58 3-0.58 1.8 0 1.9 0.09 2 1.17zm-23.9-0.78c0.2 0.21-0.1 0.39-0.5 0.39-0.5 0-0.8-0.18-0.8-0.39 0-0.22 0.2-0.39 0.4-0.39 0.3 0 0.7 0.17 0.9 0.39zm42.7 0.39c0.2 0.21 0 0.39-0.5 0.39s-0.8-0.18-0.8-0.39c0-0.22 0.2-0.39 0.5-0.39 0.2 0 0.6 0.17 0.8 0.39zm-11.1 0.03c0.4 0.47 0 0.95-0.9 0.95-0.4 0-0.7 0.35-0.8 0.78-0.3 1.22-1.2 1.76-2.8 1.76-2 0-2.9-0.93-2.3-2.27 0.5-0.9 0.8-1.05 2.5-1.01 1.1 0.02 1.9-0.11 1.9-0.29 0-0.49 2-0.42 2.4 0.08zm46.7 0.95c0 0.32-0.2 0.59-0.5 0.59s-0.6-0.27-0.6-0.59 0.3-0.59 0.6-0.59 0.5 0.27 0.5 0.59zm-41 0.06c0.6 0.45 0.4 0.92-0.4 0.92-0.4 0-0.8-0.27-0.8-0.59 0-0.61 0.6-0.78 1.2-0.33zm34.7 0.53c0 0.21-0.3 0.39-0.6 0.39-0.2 0-0.5-0.18-0.5-0.39 0-0.22 0.3-0.4 0.5-0.4 0.3 0 0.6 0.18 0.6 0.4zm-58.4 0.26c0.7 0.52 0.3 1.3-0.6 1.3s-1.7-0.69-1.7-1.4c0-0.27 1.9-0.19 2.3 0.1zm39.1 0.91c0.2 0.22 0 0.51-0.5 0.64-1 0.29-1.6-0.03-1.1-0.61 0.5-0.53 1.2-0.54 1.6-0.03zm-42.7 0.04c0.2 0.23 0.2 0.57-0.1 0.75-0.6 0.43-3.3 0.66-3.3 0.29-0.1-1.29 0.1-1.47 1.5-1.47 0.9 0 1.7 0.19 1.9 0.43zm46.7 0.74c0 0.22-0.4 0.4-0.8 0.4-0.5 0-0.8-0.18-0.8-0.4 0-0.21 0.3-0.39 0.8-0.39 0.4 0 0.8 0.18 0.8 0.39zm-6.3 0.38 1.3 0.77-2.2 0.02c-2.4 0.01-3.5-0.62-2.3-1.2 1.2-0.52 1.9-0.43 3.2 0.41zm-10.9 0.02c0.2 0.21-0.1 0.39-0.7 0.39s-1.1-0.18-1.1-0.39c0-0.22 0.3-0.4 0.7-0.4 0.5 0 1 0.18 1.1 0.4zm-9 0.46c-0.1 0.15 0 0.38 0.3 0.51 1.2 0.53 0.5 0.99-1.5 0.99-2.1 0-3.2-0.79-2-1.51 0.7-0.42 3.6-0.42 3.2 0.01zm24.3 0.54c0.4 0.34 0.8 0.78 0.8 0.97 0 0.49-2.9 1.58-3.4 1.25-0.2-0.14-0.5 0-0.8 0.31-0.3 0.36-0.5 0.4-0.5 0.11 0-0.25 0.2-0.57 0.5-0.71 0.3-0.13 0.5-0.65 0.5-1.15s0.4-1.02 0.9-1.15c1.1-0.32 1-0.33 2 0.37zm-17.6-0.34c1.1 0.13 1.5 0.43 1.7 1.42 0.1 0.68 0.2 1.3 0.1 1.36-0.3 0.3-2.9-0.89-2.9-1.35 0-0.29-0.2-0.53-0.5-0.53-0.2 0-0.6-0.26-0.7-0.58-0.2-0.34-0.1-0.57 0.3-0.53 0.4 0.03 1.3 0.13 2 0.21zm-36.4 0.32c0 0.36-0.3 0.59-0.6 0.51s-0.6-0.31-0.6-0.51c0-0.21 0.3-0.44 0.6-0.52 0.3-0.07 0.6 0.16 0.6 0.52zm5.8 0.19c0 0.22-0.3 0.39-0.6 0.39s-0.5-0.17-0.5-0.39c0-0.21 0.2-0.39 0.5-0.39s0.6 0.18 0.6 0.39zm67.5 0.42c0 0.22-0.3 0.3-0.5 0.17-0.3-0.13-0.6-0.32-0.6-0.42 0-0.09 0.3-0.17 0.6-0.17 0.2 0 0.5 0.19 0.5 0.42zm-5.8 0.2c0 0.69-1.2 0.57-1.5-0.15-0.1-0.26 0.2-0.47 0.6-0.47 0.5 0 0.9 0.28 0.9 0.62zm24.8 0.38c0.6 0.5 0.5 0.72-0.2 1.26-0.8 0.61-0.9 0.61-1.8 0-0.7-0.54-0.7-0.76-0.2-1.26 0.4-0.33 0.9-0.61 1.1-0.61s0.7 0.28 1.1 0.61zm-68.8-0.02c0.2 0.35 0.1 0.83-0.2 1.06-0.8 0.6-2.3 0.05-2.1-0.76 0.2-0.9 1.9-1.12 2.3-0.3zm-33.3-0.22c0.4 0.47-0.6 0.93-1.3 0.61-0.6-0.27-0.2-0.98 0.5-0.98 0.3 0 0.6 0.17 0.8 0.37zm14 0.81c0 0.21-0.4 0.39-0.8 0.39-0.5 0-0.7-0.18-0.5-0.39 0.1-0.22 0.5-0.39 0.8-0.39s0.5 0.17 0.5 0.39zm62.5 0.98c0.8 0.91 0.8 1.05 0 1.96-1 1.12-2.2 1.24-3.8 0.37-1.3-0.67-1.6-2.09-0.6-2.84 1.1-0.83 3.5-0.56 4.4 0.51zm-36.7-0.22c0 0.2-0.2 0.84-0.5 1.42l-0.6 1.07-1.3-0.91c-0.7-0.5-1.3-1.1-1.2-1.33 0-0.23 0.3-0.1 0.7 0.3 0.8 0.78 1.9 0.57 1.9-0.35 0-0.32 0.2-0.57 0.5-0.57s0.5 0.17 0.5 0.37zm-9.5 1c0 0.32-0.3 0.59-0.8 0.59-0.4 0-0.7-0.27-0.7-0.59s0.3-0.59 0.7-0.59c0.5 0 0.8 0.27 0.8 0.59zm-3.7 0.17c1.5 1.08 1.5 3.16 0.1 3.16-1.6 0-2.8-1.12-2.6-2.47 0.2-1.49 1.1-1.73 2.5-0.69zm32.9-0.1c0.2 0.14 0.4 0.58 0.4 0.98 0 0.5-0.4 0.71-1.3 0.71-1.1 0-1.4-0.19-1.4-0.97 0-0.69 0.3-0.98 1-0.98 0.5 0 1.1 0.11 1.3 0.26zm-10.4 0.51c0.5 0.16 1.4 0.2 1.8 0.08 0.5-0.15 0.4 0.1-0.3 0.83-1.2 1.19-1.7 1.28-3.2 0.49-0.9-0.5-0.9-0.62-0.2-1.13 0.5-0.36 1.2-0.46 1.9-0.27zm15.6 0.83c0.7 1.09 0 1.65-1.8 1.31-2-0.36-2.1-2.13-0.1-2.13 0.7 0 1.5 0.33 1.9 0.82zm15.6 0.94c0.7 0.54 1.4 0.98 1.7 0.98 0.2 0 0.6 0.27 0.7 0.59 0.6 1.02-1.4 0.67-3.2-0.59-1-0.64-1.6-1.35-1.4-1.56 0.5-0.61 1-0.48 2.2 0.58zm-35.2-0.02c0.8 0.78 0.4 1.62-1 1.9-1.3 0.23-1.8-0.37-1.5-1.56 0.2-0.91 1.6-1.11 2.5-0.34zm-11.6-0.01c0 0.37-0.5 0.62-1.1 0.62-1.3 0-1.1-0.92 0.2-1.11 0.5-0.07 0.9 0.13 0.9 0.49zm38.2 0.61c1.4 1.12 1.4 6.54 0.1 6.35-0.8-0.1-0.9 0.08-0.6 1.11 0.4 1.17 0.3 1.22-1.1 1.1-1.2-0.1-1.6-0.35-1.7-1.21-0.1-0.76 0.1-1.07 0.7-1.07 1 0 1-0.55 0-1.18-1.5-0.93-0.7-5.87 1-5.87 0.4 0 1.1 0.34 1.6 0.77zm12.4 0.4c0 0.22-0.2 0.39-0.5 0.39s-0.5-0.17-0.5-0.39c0-0.21 0.2-0.39 0.5-0.39s0.5 0.18 0.5 0.39zm-18.2 1.17c0.8 0.6 0.9 0.92 0.4 1.25-0.7 0.54-3.4-0.65-3.1-1.37 0.3-0.78 1.7-0.73 2.7 0.12zm29.4-0.12c0.6 0.11 1.1 0.73 1.3 1.53 0.2 1.03 0.6 1.4 1.7 1.6 1.5 0.27 3.8 1.3 3 1.32-0.3 0.01-0.1 0.27 0.5 0.58 0.8 0.48 0.9 0.72 0.4 1.57-0.4 0.55-0.7 1.33-0.7 1.73 0 0.65 2.2 2.95 4.5 4.76 0.9 0.7 1 1.14 0.3 1.14-0.2 0-1.2-0.87-2.1-1.93-2.5-2.89-5.4-4.03-6.1-2.41-0.4 0.97-3.1 0.86-3.3-0.14-0.1-0.45-0.5-0.58-1.1-0.4-1.9 0.58-2.5 0.59-3.4 0.07-1.2-0.65-0.9-1.71 1-3.42l1.4-1.17h-1.4c-1.2 0-1.4-0.16-1.3-1.08 0.1-0.59 0-1.25-0.1-1.47-0.1-0.21 0.2-0.88 0.8-1.47 0.9-1.05 2.2-1.28 4.6-0.81zm-60.2 0.13c0 0.21-0.3 0.39-0.5 0.39-0.3 0-0.6-0.18-0.6-0.39 0-0.22 0.3-0.4 0.6-0.4 0.2 0 0.5 0.18 0.5 0.4zm46.7 0.95c1.3 0.68 0.6 1.79-1 1.79-1.5 0-2.1-0.45-1.6-1.31 0.4-0.86 1.5-1.06 2.6-0.48zm-32.1 0.86c0.8 0.98 0.8 1.05-0.1 1.58-1 0.5-1.2 0.47-2-0.28-0.5-0.47-0.9-1.18-0.9-1.59 0-1.11 1.9-0.92 3 0.29zm-6.7-0.13c0.7 0.27 1.4 0.88 1.5 1.36 0.1 0.7-0.1 0.87-1.1 0.87-1.6 0-3.2-1.22-2.7-2.09 0.4-0.77 0.6-0.79 2.3-0.14zm-8 0.3c0.9 0.27 1.1 0.65 1.1 1.72 0 1.33 0 1.36-1.3 0.92-1.4-0.47-2.3-2.09-1.5-2.65 0.3-0.18 1-0.17 1.7 0.01zm73.4 1.34c0.9 0.84 0.2 1.85-1.2 1.7-1.3-0.14-1.9-1.43-0.8-1.93 1-0.47 1.3-0.44 2 0.23zm-20.6 0.02c0.5 0.4 0.5 0.74 0.2 1-0.8 0.57-2.3 0-2.3-0.86 0-0.89 1.2-0.97 2.1-0.14zm-30.7 0c0.1 0.34 0.1 0.71 0 0.84-0.4 0.28-2-0.6-2-1.1 0-0.59 1.6-0.37 2 0.26zm-18.9-0.19c0 0.23-0.2 0.31-0.5 0.18-0.3-0.14-0.5-0.32-0.5-0.42 0-0.09 0.2-0.17 0.5-0.17s0.5 0.19 0.5 0.41zm28.6 1.04c0.2 0.39 0.1 1.1 0 1.59-0.3 0.85-0.4 0.86-1.5 0.26-0.8-0.4-1.2-0.95-1.1-1.48 0.2-1.08 2.3-1.38 2.6-0.37zm10.1 0.38c0.6 0.45 0.4 0.91-0.4 0.91-0.4 0-0.8-0.26-0.8-0.59 0-0.61 0.6-0.77 1.2-0.32zm-35.9 0.22c0.5 0.27 1.1 1 1.4 1.61 0.4 0.61 1.1 1.21 1.7 1.32 1.4 0.29 1.4 2.07-0.1 2.07-1.8 0-3.7-1.17-3.3-2.04 0.1-0.43-0.1-1.04-0.5-1.42-0.4-0.37-0.6-0.96-0.4-1.35 0.3-0.58 0.5-0.61 1.2-0.19zm64 5c-0.2 0.22-0.6 0.39-0.9 0.39s-0.4-0.17-0.2-0.39 0.6-0.39 0.9-0.39 0.4 0.17 0.2 0.39zm-67 0.76c0.3 0.43-0.5 0.9-1 0.54-0.5-0.38-0.4-0.91 0.2-0.91 0.2 0 0.6 0.17 0.8 0.37zm9.2 1.2c0 0.21-0.2 0.39-0.5 0.39s-0.5-0.18-0.5-0.39c0-0.22 0.2-0.39 0.5-0.39s0.5 0.17 0.5 0.39zm45.1 0.99c0.7 0.84 0.7 1.01 0.1 1.2-1.2 0.33-3-0.54-3-1.42 0-1.11 1.8-0.98 2.9 0.22zm-50.8 0.38c0.3 0.54 0.4 1.11 0.2 1.26-0.6 0.45-2.1-0.48-2.3-1.4-0.2-1.19 1.4-1.09 2.1 0.14zm12.6 0.42c0.7 0.55 2.2 1.38 3.2 1.83 2.3 0.94 3.6 2.92 2.2 3.31-1.2 0.36-3.6-1.18-3.6-2.4 0-0.73-0.5-1.4-1.8-2.18-1-0.61-1.7-1.22-1.6-1.34 0.2-0.12 0.9 0.23 1.6 0.78zm-6.3 0.95c2.1 1.55 1.8 2.51-0.7 2.67-1.7 0.1-2-0.03-2.8-1.06-1-1.45-1-1.41 0.1-2.17 1.1-0.86 1.6-0.78 3.4 0.56zm-35.9 1.18c0 0.21-0.3 0.39-0.6 0.39-0.2 0-0.5-0.18-0.5-0.39 0-0.22 0.3-0.4 0.5-0.4 0.3 0 0.6 0.18 0.6 0.4zm73.3 0.78c0.7 0.32 0.6 0.38-0.1 0.39-0.5 0-1-0.17-1-0.39 0-0.48 0.1-0.48 1.1 0zm-16.5 1.39c0.1 0.33 0.1 0.7 0 0.82-0.5 0.34-1.4-0.24-1.4-0.86 0-0.75 1-0.73 1.4 0.04zm-43.9 0.4c0.9 0.68 1 1.57 0.3 1.91-0.8 0.37-2.9-1.17-2.5-1.88 0.4-0.81 1.1-0.82 2.2-0.03zm25.8 3.14c0.2 0.42 0 0.57-0.6 0.48-0.5-0.06-1-0.34-1.1-0.61-0.3-0.72 1.3-0.6 1.7 0.13zm-24 0.14c0.9 0.41 0.4 1.59-0.7 1.59-1.2 0-1.6-0.79-0.8-1.39 0.5-0.34 1-0.42 1.5-0.2zm70.2 0.63c0 0.34-0.2 0.51-0.5 0.37-0.3-0.13-0.6-0.41-0.6-0.61s0.3-0.37 0.6-0.37 0.5 0.28 0.5 0.61zm-32.8 1.46c0.9 0.81 0.6 1.96-0.3 1.5-0.4-0.18-0.7-0.73-0.6-1.23 0.2-0.81 0.3-0.84 0.9-0.27zm5.3 0.36c0.7 0.58 0.8 1.49 0 1.49-1 0-2.6-0.81-2.6-1.38 0-0.7 1.7-0.76 2.6-0.11zm-17.1 2.27c0.5 0.53-0.1 1.18-1.1 1.18-0.4 0-0.7-0.35-0.7-0.78 0-0.82 1.3-1.09 1.8-0.4zm16.1 0.59c0 0.32-0.2 0.59-0.5 0.59s-0.5-0.27-0.5-0.59 0.2-0.59 0.5-0.59 0.5 0.27 0.5 0.59zm-56.7 0.61c1.7 2.47 0 4.49-2.5 2.85-2.4-1.63-2.2-4.05 0.4-4.05 0.9 0 1.5 0.36 2.1 1.2zm89.6 0.3c1.5 1.24 1.1 1.69-1 0.97-1-0.36-1.8-0.88-1.8-1.17 0-0.75 1.8-0.63 2.8 0.2zm3.5 0.69c-0.1 0.46-0.2 0.55-0.4 0.24-0.1-0.29-0.1-0.62 0.1-0.75s0.3 0.1 0.3 0.51zm-27.4 2.51c0 0.22-0.3 0.4-0.5 0.4-0.3 0-0.6-0.18-0.6-0.4 0-0.21 0.3-0.39 0.6-0.39 0.2 0 0.5 0.18 0.5 0.39zm-25.3 6.5c0 0.34-0.3 0.55-0.7 0.47-0.9-0.25-1.1-1.09-0.2-1.09 0.5 0 0.9 0.28 0.9 0.62z" />
    </g>
  </g>
  <metadata
     id="metadata7">
    <rdf:RDF>
      <cc:Work>
        <dc:format>image/svg+xml</dc:format>
        <dc:type
           rdf:resource="http://purl.org/dc/dcmitype/StillImage" />
        <cc:license
           rdf:resource="http://creativecommons.org/publicdomain/zero/1.0/" />
        <dc:publisher>
          <cc:Agent
             rdf:about="http://openclipart.org/">
            <dc:title>Openclipart</dc:title>
          </cc:Agent>
        </dc:publisher>
      </cc:Work>
      <cc:License
         rdf:about="http://creativecommons.org/publicdomain/zero/1.0/">
        <cc:permits
           rdf:resource="http://creativecommons.org/ns#Reproduction" />
        <cc:permits
           rdf:resource="http://creativecommons.org/ns#Distribution" />
        <cc:permits
           rdf:resource="http://creativecommons.org/ns#DerivativeWorks" />
      </cc:License>
    </rdf:RDF>
  </metadata>
</svg>
